<svg preserveAspectRatio="none" width="100%" height="100%" overflow="visible" style="display: block;" viewBox="0 0 72.4219 60" fill="none" xmlns="http://www.w3.org/2000/svg">
<g id="image">
<path id="Vector" d="M32.3854 21.6093C32.8042 21.5903 33.109 21.7246 33.1165 22.1984C33.1535 24.6866 33.1646 27.2278 33.0263 29.7103C32.7451 30.3144 32.0422 29.8566 31.8031 29.7581C30.9226 29.395 31.23 28.732 31.2299 27.7591C31.2766 27.4682 31.1411 26.905 31.3635 26.7213C31.643 27.4093 31.2104 29.12 31.7054 29.5243C31.799 29.2424 31.7527 24.7825 31.8612 24.0479C31.8902 23.8516 31.7858 22.639 31.8397 22.3388C31.9078 21.96 32.105 21.8378 32.3854 21.6093Z" fill="var(--fill-0, #E04A05)"/>
<path id="Vector_2" d="M42.0408 27.41C42.5339 27.3517 42.8725 27.9576 42.8789 28.3751C42.9021 29.9019 42.858 31.4324 42.889 32.9611C42.9008 33.5476 42.9154 34.2859 42.8302 34.8577C42.6456 35.1338 42.6003 35.1915 42.3425 35.3991C42.2747 35.4405 42.1834 35.4353 42.1066 35.4303C41.9281 35.4186 41.7694 35.3696 41.6544 35.2211C41.3635 34.8454 41.4202 28.9426 41.5085 28.1377C41.545 27.8044 41.794 27.6031 42.0408 27.41Z" fill="var(--fill-0, #E04A05)"/>
<path id="Vector_3" d="M34.1567 25.7475C34.3951 25.7302 34.7437 25.6835 34.932 25.8337C35.0611 26.3188 35.0646 33.5096 34.9702 33.8302C34.9193 34.0032 34.8223 34.0262 34.6762 34.1012C34.52 34.099 34.3292 34.112 34.1783 34.0727C34.0672 34.0438 33.9766 33.9896 33.9206 33.8875C33.6565 33.407 33.6121 26.5267 33.8254 25.9995C33.8878 25.8452 34.0189 25.8115 34.1567 25.7475Z" fill="var(--fill-0, #E04A05)"/>
<path id="Vector_4" d="M38.0431 24.1436C38.3428 24.1179 38.6455 24.1529 38.841 24.4032C38.9511 24.7022 38.9596 25.0484 38.9726 25.3643C39.004 26.1227 39.0318 31.6851 38.866 32.0704C38.7851 32.2583 38.467 32.358 38.2945 32.4281C37.9641 32.316 37.7847 32.2166 37.4787 32.0554C38.2805 30.6786 36.9064 25.0353 38.0431 24.1436Z" fill="var(--fill-0, #E04A05)"/>
<path id="Vector_5" d="M43.8783 30.4586C44.392 30.4372 44.5238 30.7274 44.7969 31.1004C44.8198 31.3273 44.8317 31.5721 44.8197 31.8014C44.7134 33.8305 44.9722 35.8611 44.8261 37.8837C44.8061 38.1599 44.6424 38.2608 44.436 38.41C44.2806 38.4363 44.0719 38.4933 43.9164 38.4765C43.7737 38.4612 43.6931 38.3936 43.6049 38.2859C43.3876 38.021 43.4184 31.7493 43.4934 31.0713C43.5254 30.783 43.6559 30.6311 43.8783 30.4586Z" fill="var(--fill-0, #E04A05)"/>
<path id="Vector_6" d="M26.6523 27.5849C26.9999 27.6737 27.4141 27.9233 27.4111 28.3303C27.3942 30.5855 27.4655 32.853 27.3998 35.105C27.3889 35.4799 27.066 35.7077 26.8004 35.9054C26.624 35.8222 26.353 35.7077 26.2407 35.5408C26.0872 35.3129 25.9921 28.8575 26.09 28.2664C26.1426 27.9486 26.4091 27.7601 26.6523 27.5849Z" fill="var(--fill-0, #E04A05)"/>
<path id="Vector_7" d="M45.939 21.604C46.1994 21.5832 46.4405 21.8704 46.6193 22.0429C46.929 23.3759 46.5612 25.7548 46.6534 27.1804C46.7038 27.9604 46.6651 28.8875 46.6429 29.6671C46.6389 29.8082 46.3863 29.9518 46.2716 30.0261C46.1331 30.063 45.9947 30.0847 45.8517 30.0594C45.7052 30.0333 45.5865 29.9408 45.5076 29.8166C45.3237 29.5271 45.351 22.5918 45.4878 21.9449C45.59 21.7572 45.7471 21.7024 45.939 21.604Z" fill="var(--fill-0, #E04A05)"/>
<path id="Vector_8" d="M59.342 25.78C59.6883 25.8125 59.9191 25.8901 60.2508 25.9865C60.092 27.3925 60.3984 32.974 60.0879 33.8486C59.9795 34.0035 59.7896 34.0221 59.6021 34.0673C59.3936 34.0686 59.2178 34.0161 59.083 33.8535C59.0168 33.6163 58.8844 26.3837 58.9441 26.1128C59.0725 25.9146 59.1328 25.8945 59.342 25.78Z" fill="var(--fill-0, #BBCCBD)"/>
<path id="Vector_9" d="M28.4947 25.9569C29.5177 25.9055 29.2922 26.5389 29.3115 27.3028C29.3646 29.4103 29.5319 31.5129 29.343 33.6214C29.3346 33.7163 29.0676 33.9772 28.9959 34.0497C28.3533 34.0847 28.0714 34.0328 28.0938 33.3305C28.1347 32.0488 28.0785 30.7352 28.1118 29.4568C28.1382 28.4373 28.0067 27.157 28.1143 26.176C28.2082 26.0343 28.3284 26.0154 28.4947 25.9569Z" fill="var(--fill-0, #E04A05)"/>
<path id="Vector_10" d="M47.7591 25.3082C48.0938 25.3201 48.2619 25.3472 48.4958 25.5908C48.657 26.1888 48.5958 31.446 48.5459 32.4372C48.5395 32.5651 48.2675 32.6367 48.1276 32.6918C47.8205 32.7264 47.3881 32.6558 47.378 32.4001C47.3323 31.2418 47.1356 26.4339 47.3483 25.6177C47.4403 25.4556 47.593 25.3968 47.7591 25.3082Z" fill="var(--fill-0, #E04A05)"/>
<path id="Vector_11" d="M39.9579 28.834C40.2859 28.8256 40.5176 28.8148 40.7657 29.0439C41.0392 29.6231 40.7579 34.8253 40.8152 35.7C40.8267 35.8744 40.6355 35.9165 40.4928 35.9745C39.5661 35.9365 39.5438 35.6508 39.5477 34.7904C39.5564 32.9268 39.5016 31.0457 39.5899 29.1872C39.5972 29.0322 39.8379 28.9063 39.9579 28.834Z" fill="var(--fill-0, #E04A05)"/>
<path id="Vector_12" d="M51.7095 22.7116L51.7304 22.7156C52.0413 22.7726 52.3341 23.0719 52.3513 23.3804C52.4646 25.4109 52.4128 27.4756 52.3688 29.5101C52.3615 29.8455 52.214 30.0536 51.9761 30.2573C51.4764 30.2039 51.1973 29.9939 51.1795 29.4687C51.1278 27.9425 51.1816 26.4052 51.1642 24.8773C51.1583 24.3681 51.1539 23.8454 51.2173 23.3421C51.2578 23.0203 51.4669 22.8848 51.7095 22.7116Z" fill="var(--fill-0, #E04A05)"/>
<path id="Vector_13" d="M61.2246 24.1123C61.5334 24.1239 61.9705 24.402 61.9945 24.7082C62.0789 25.7996 62.0068 27.0083 61.9963 28.1026C61.9881 28.9474 61.8896 29.7061 61.9137 30.5419C61.9225 30.8679 62.0596 30.9064 61.8732 31.2059C61.8164 31.2254 61.7584 31.2413 61.6998 31.2531C61.3629 31.3206 60.9199 31.3557 60.907 30.8794C60.8596 29.0371 60.8941 27.1812 60.8988 25.3366C60.9 24.8566 60.927 24.4989 61.2246 24.1123Z" fill="var(--fill-0, #BBCCBD)"/>
<path id="Vector_14" d="M65.0391 28.9726C65.2482 28.9849 65.7129 29.0249 65.7264 29.3191C65.8119 31.2339 65.7645 33.1435 65.7504 35.0588C65.7498 35.1783 65.6543 35.3432 65.5945 35.4468C65.5799 35.4447 65.5652 35.4428 65.5506 35.4405C65.3074 35.4021 65.0818 35.336 64.9383 35.1216C64.5832 34.5893 64.8615 29.818 65.0391 28.9726Z" fill="var(--fill-0, #BBCCBD)"/>
<path id="Vector_15" d="M16.0538 26.3968L16.1642 26.5161C16.2181 26.7875 16.1854 26.884 16.1285 27.159L16.0191 27.0347C15.961 26.798 16.0092 26.6381 16.0538 26.3968Z" fill="var(--fill-0, #D78E71)" fill-opacity="0.85098"/>
<path id="Vector_16" d="M24.7433 26.0563C25.7295 26.1718 25.4064 28.2254 25.4392 28.9873C25.4671 29.6317 25.5272 30.5128 24.8802 30.7954C24.6837 30.7915 24.4993 30.8016 24.3587 30.6669C23.9746 30.0459 24.1568 27.6434 24.2014 26.8373C24.2205 26.4907 24.4936 26.2724 24.7433 26.0563Z" fill="var(--fill-0, #E04A05)"/>
<path id="Vector_17" d="M67.241 27.6418C67.3523 27.6443 67.5896 27.6939 67.6043 27.8323C67.7754 29.4563 67.7197 31.201 67.6412 32.8305C67.6336 32.9933 67.3037 33.0785 67.1883 33.1163C66.9504 33.0918 66.9369 33.1312 66.7928 33.0008C66.6621 32.141 66.7781 29.011 66.7893 27.9349C66.7904 27.7997 67.0951 27.6929 67.241 27.6418Z" fill="var(--fill-0, #BBCCBD)"/>
<path id="Vector_18" d="M14.6457 28.8895C14.7055 28.6358 14.624 28.3799 14.7487 28.2086L14.8635 28.2381C14.8772 28.3097 14.9163 28.5415 14.9383 28.5957C14.9742 28.8652 14.9968 29.1867 15.1139 29.426L15.1808 29.3858C15.2321 29.1596 15.2342 28.9891 15.2453 28.7576C15.3786 28.6117 15.3979 28.4738 15.5753 28.4314C15.6769 28.7568 15.7683 30.0319 15.777 30.4201C15.7659 30.9009 15.7611 31.9067 15.6816 32.3424C15.4158 32.3743 14.9779 32.4602 14.7456 32.3711C14.5626 32.2051 14.5789 32.1787 14.5539 31.8858C14.636 31.5563 14.6401 29.3227 14.6457 28.8895Z" fill="var(--fill-0, #BBCCBD)"/>
<path id="Vector_19" d="M6.07541 25.9611C6.11279 26.3208 6.06281 27.2937 5.98512 27.6806C5.93449 27.9329 5.35373 27.9619 5.14618 27.8558C4.96576 27.5815 5.06256 24.8467 5.02368 24.332C4.99317 23.9282 5.18714 23.665 5.63349 23.6388C5.56269 24.0616 5.4445 24.0979 5.485 24.52C5.27515 24.9825 5.5226 26.5356 5.57293 27.1853L5.75946 26.3903C5.87367 26.2172 5.94035 26.1185 6.07541 25.9611Z" fill="var(--fill-0, #BBCCBD)" fill-opacity="0.976471"/>
<path id="Vector_20" d="M36.0628 27.9445C36.3944 27.93 36.7368 27.915 36.9796 28.1802C37.0337 28.3817 37.0299 28.2963 36.9704 28.5159C36.7397 28.6018 36.7307 28.2138 36.3664 28.1898C35.8224 28.5988 36.2725 30.5126 36.2329 31.1523C36.2253 31.2745 36.257 31.4263 36.2983 31.5431C36.4476 31.6764 36.3732 31.6407 36.591 31.6633C36.7806 31.5415 36.8069 31.5101 37.0061 31.5836L37.0276 31.7021C36.7771 32.1035 36.1188 32.2604 35.9374 31.9628C35.4605 31.1801 35.7641 29.4974 35.7719 28.5878C35.7745 28.283 35.8869 28.0832 36.0628 27.9445Z" fill="var(--fill-0, #E04A05)"/>
<path id="Vector_21" d="M49.7378 23.3089C49.9264 23.3145 50.1926 23.3446 50.2587 23.5504C50.4371 24.1048 50.3647 25.2277 50.2097 25.7739C50.1717 25.4291 50.1626 25.1162 50.1504 24.7706C50.1365 24.4811 50.1732 23.9047 49.9486 23.7302C49.7298 23.8198 49.7484 24.1076 49.4844 24.2414C49.3394 24.214 49.3211 24.1785 49.2081 24.0721C49.1108 23.6886 49.4503 23.4922 49.7378 23.3089Z" fill="var(--fill-0, #E04A05)" fill-opacity="0.972549"/>
<path id="Vector_22" d="M5.485 24.52L5.59295 24.3319C5.85095 24.5227 5.8361 26.0789 5.75946 26.3903L5.57293 27.1853C5.52259 26.5356 5.27515 24.9825 5.485 24.52Z" fill="var(--fill-0, #BBCCBD)" fill-opacity="0.0235294"/>
<path id="Vector_23" d="M5.63349 23.6388C6.34383 24.3268 5.78087 25.2421 6.07541 25.9611C5.94035 26.1185 5.87367 26.2172 5.75946 26.3903C5.8361 26.0789 5.85095 24.5227 5.59296 24.3319L5.485 24.52C5.4445 24.0979 5.56269 24.0616 5.63349 23.6388Z" fill="var(--fill-0, #BBCCBD)" fill-opacity="0.870588"/>
<path id="Vector_24" d="M30.5224 24.1842C30.6831 24.1885 31.1001 24.3874 31.1157 24.5625C30.8565 24.5396 30.5321 24.4828 30.3186 24.636C30.1819 24.8098 30.2019 25.5648 30.194 25.8257C30.1915 26.0426 30.2043 26.2005 30.123 26.4022C29.9941 26.1505 29.9803 24.7915 30.0398 24.4852C30.148 24.3108 30.3289 24.2637 30.5224 24.1842Z" fill="var(--fill-0, #E04A05)" fill-opacity="0.960784"/>
<path id="Vector_25" d="M8.86254 26.932C8.84566 26.3621 8.85744 24.5599 9.29402 24.2136C9.52599 24.163 9.43629 24.1566 9.67066 24.2968L9.39117 24.5986C9.18586 24.9809 9.09111 26.1953 8.86254 26.932Z" fill="var(--fill-0, #BBCCBD)" fill-opacity="0.94902"/>
<path id="Vector_26" d="M14.9341 24.3074C14.8799 24.6144 14.9088 25.1653 14.8277 25.4196C14.5785 25.1395 14.6075 24.1622 14.7847 23.8189C15.0701 23.5889 15.3495 23.6992 15.6346 23.9029L15.5149 24.0302C15.3377 23.9955 15.2605 23.9767 15.0746 23.9804C14.9552 24.0943 14.9589 24.1409 14.9341 24.3074Z" fill="var(--fill-0, #B7AF99)" fill-opacity="0.960784"/>
<path id="Vector_27" d="M57.2606 22.7979C57.4866 22.7989 57.7867 22.762 57.957 22.8826C57.963 23.0418 57.9452 23.009 57.8101 23.1554C57.6633 23.1957 57.626 23.2085 57.4914 23.2817L57.4602 23.2989C57.3726 23.4864 57.3268 23.6502 57.0979 23.6422C56.8785 23.3711 57.06 23.0169 57.2606 22.7979Z" fill="var(--fill-0, #B7AF99)"/>
<path id="Vector_28" d="M17.7499 26.6234C17.9027 26.7519 18.0014 26.7843 18.0355 26.9916C18.1484 27.6781 18.1056 28.4274 18.0338 29.1162C17.9551 28.835 17.8737 28.5674 17.8295 28.2781C17.7945 27.6783 17.8161 27.2712 17.7499 26.6234Z" fill="var(--fill-0, #D78E71)" fill-opacity="0.92549"/>
<path id="Vector_29" d="M9.67066 24.2968C9.90744 24.6262 9.79611 25.9637 9.7633 26.4267C9.65197 25.8987 9.64652 24.8682 9.39117 24.5986L9.67066 24.2968Z" fill="var(--fill-0, #BBCCBD)" fill-opacity="0.0941176"/>
<path id="Vector_30" d="M14.6457 28.8895C14.6201 28.4324 14.5816 26.802 14.7887 26.4206C14.9024 26.7605 14.837 27.3691 14.8302 27.7637C14.8348 27.9443 14.8384 28.0576 14.8635 28.2381L14.7487 28.2086C14.624 28.3799 14.7055 28.6358 14.6457 28.8895Z" fill="var(--fill-0, #B7AF99)" fill-opacity="0.905882"/>
<path id="Vector_31" d="M14.9383 28.5957L15.0179 28.5704C14.9961 28.4459 14.9842 28.4094 14.9965 28.2851L15.1052 28.2076L15.1869 28.2545C15.2342 28.4446 15.2697 28.5253 15.2052 28.715L15.2453 28.7576C15.2342 28.9891 15.2321 29.1596 15.1808 29.3858L15.1139 29.426C14.9968 29.1867 14.9742 28.8652 14.9383 28.5957Z" fill="var(--fill-0, #B7AF99)" fill-opacity="0.0588235"/>
<path id="Vector_32" d="M12.7456 23.2852L12.7583 23.1334C12.909 23.0186 12.8673 23.053 13.0937 23.0546L13.2152 23.1281C13.2358 23.4262 13.0191 23.3903 12.9529 23.9114L12.8436 23.8441C12.808 23.6583 12.7754 23.472 12.7456 23.2852Z" fill="var(--fill-0, #BBCCBD)" fill-opacity="0.976471"/>
<path id="Vector_33" d="M12.7456 23.2852C12.7754 23.472 12.808 23.6583 12.8436 23.8441L12.9529 23.9114C12.9481 24.3701 12.8811 24.8519 12.7905 25.3008C12.709 24.668 12.7392 23.9309 12.7456 23.2852Z" fill="var(--fill-0, #BBCCBD)" fill-opacity="0.858824"/>
<path id="Vector_34" d="M7.84389 33.1037L7.92012 33.1718L7.90348 33.2854C7.696 33.4761 7.27916 33.4641 7.01391 33.4585L7.02357 33.3262C7.1274 33.1864 7.40772 33.3976 7.84389 33.1037Z" fill="var(--fill-0, #BBCCBD)" fill-opacity="0.639216"/>
<path id="Vector_35" d="M63.8725 33.8359C63.9123 34.1305 63.9662 34.417 63.9293 34.7118C63.7846 35.0622 63.7863 35.2061 63.8109 35.5863C63.6703 35.1976 63.8215 34.2936 63.8725 33.8359Z" fill="var(--fill-0, #BBCCBD)" fill-opacity="0.223529"/>
<path id="Vector_36" d="M63.8109 35.5863C63.7863 35.2061 63.7846 35.0622 63.9293 34.7118C63.9328 34.8717 63.9715 35.7752 63.9469 35.862L63.7307 36.0807C63.7869 35.9065 63.8672 35.7475 63.8109 35.5863Z" fill="var(--fill-0, #BBCCBD)" fill-opacity="0.447059"/>
<path id="Vector_37" d="M63.9469 35.862C63.9475 36.1962 63.9592 36.2989 63.7998 36.5937L63.7254 36.5844C63.6269 36.3373 63.7383 36.3129 63.7307 36.0807L63.9469 35.862Z" fill="var(--fill-0, #BBCCBD)" fill-opacity="0.756863"/>
<path id="Vector_38" d="M10.8826 33.7596L10.9773 33.6525C11.1916 33.6848 11.4031 33.6745 11.5512 33.7969C11.5068 33.9036 11.4983 33.9068 11.4118 33.9871C11.1816 33.9182 11.0773 33.8978 10.8826 33.7596Z" fill="var(--fill-0, #BBCCBD)" fill-opacity="0.776471"/>
</g>
</svg>
