<svg preserveAspectRatio="none" width="100%" height="100%" overflow="visible" style="display: block;" viewBox="0 0 24 24" fill="none" xmlns="http://www.w3.org/2000/svg">
<g id="image">
<path id="Vector" d="M4.07503 3.47276C4.64524 3.3821 5.25429 3.35039 5.8159 3.50041C5.96339 3.71962 6.10488 3.70908 6.34205 3.83496C6.57684 4.26138 6.75145 4.37955 6.86023 4.88421C6.91509 4.93477 6.97955 4.99751 7.03849 5.04084C7.07548 5.31363 7.17473 5.88237 6.97964 6.12239C6.77416 6.37519 6.70833 6.64207 6.48075 6.90293C5.93513 7.51266 5.38929 7.98347 4.95663 8.69011C4.70266 9.10493 4.70552 9.11309 4.53333 9.56109C4.24064 10.3226 4.2525 11.0699 4.34327 11.8852L4.52334 12.0108C4.65694 12.255 4.60852 12.5389 4.7622 12.7956C5.07586 13.3194 5.49516 13.8342 5.92964 14.2627C6.16005 14.4784 6.30464 14.5232 6.57162 14.8013L6.90171 14.843C6.82891 14.9678 6.76259 14.9338 6.69841 15.0476L6.71562 15.079C6.85784 15.1027 7.13505 15.1075 7.30261 15.1235C7.09357 15.0311 7.16602 14.928 7.05682 14.8601C7.2157 14.8532 8.25049 14.8415 8.2477 14.6657C8.19122 14.6017 8.14697 14.5951 8.06524 14.5699C8.0344 14.3913 8.03123 14.3348 8.08242 14.1609L8.22954 14.1586C8.56343 14.1822 8.75604 14.0285 9.10437 14.1139C9.1121 14.2501 9.10713 14.282 9.07699 14.4156C8.97635 14.5778 8.83484 14.8931 8.97434 15.0627C9.0502 15.0955 9.0953 15.0849 9.18195 15.0601C9.22148 15.0372 9.36841 14.982 9.41864 14.9619C9.63989 14.8657 9.75818 14.8351 10.0011 14.814C10.0739 14.8077 10.0762 14.7961 10.1077 14.7517C10.2716 14.4218 10.4487 14.5845 10.6913 14.7271C10.7485 14.7307 10.9827 14.7568 11.0094 14.7574C11.1667 14.7611 11.5205 14.4738 11.6336 14.3653C11.9224 14.088 12.2525 13.77 12.5292 13.4804C12.8328 13.1626 13.316 12.7255 13.5608 12.3798C13.7431 12.3004 13.944 12.1237 13.9938 12.1061C14.3629 11.9758 15.1118 11.9978 15.4756 12.145C15.9783 12.3483 16.3097 12.842 16.5304 13.3146C16.6399 13.5491 16.6412 14.1097 16.5551 14.3565C16.5266 14.4381 16.3624 14.6513 16.3068 14.7342C15.8205 15.4595 15.1598 16.0296 14.543 16.651L12.2897 18.8908C11.7916 19.3811 11.3181 19.9021 10.7993 20.3886C10.5248 20.646 9.88418 21.0313 9.75555 21.2625C9.53135 21.2849 9.2647 21.3057 9.04315 21.3478C8.75163 21.4031 8.42986 21.5252 8.12979 21.5441C7.38912 21.5909 6.58467 21.5364 5.8452 21.4618C5.65106 21.4422 5.41334 21.3519 5.20706 21.3231C4.93324 21.2848 4.57683 21.3021 4.32169 21.2395L4.30629 21.2358C3.93898 21.1458 3.31186 20.5036 3.02923 20.2304C2.92423 20.1289 2.77095 19.4915 2.7645 19.3129C2.73909 18.6101 2.7582 17.9019 2.75981 17.1974L2.76473 13.2097L2.76237 7.98642C2.76232 7.12479 2.75709 6.26473 2.76438 5.40185C2.77003 4.73034 3.15778 4.18889 3.68384 3.80255C3.82034 3.70228 3.97455 3.60834 4.07503 3.47276ZM4.32082 9.60323C4.35499 9.52247 4.40168 9.41276 4.38429 9.32646C4.36446 9.31509 4.33587 9.2973 4.31585 9.28868C4.24547 9.39485 4.22545 9.50927 4.31379 9.61556L4.32082 9.60323Z" fill="var(--fill-0, #050505)"/>
<path id="Vector_2" d="M8.22954 14.1586C8.56343 14.1822 8.75604 14.0285 9.10437 14.1139C9.1121 14.2501 9.10713 14.282 9.07699 14.4156C8.97635 14.5778 8.83484 14.8931 8.97434 15.0627C9.0502 15.0955 9.0953 15.0849 9.18195 15.0601C9.26393 15.0882 9.51267 15.249 9.52952 15.3247L9.50852 15.3716C8.69264 15.525 8.06473 15.3694 7.30261 15.1235C7.09357 15.0311 7.16602 14.928 7.05682 14.8601C7.2157 14.8532 8.25049 14.8415 8.2477 14.6657C8.19122 14.6017 8.14697 14.5951 8.06524 14.5699C8.0344 14.3913 8.03123 14.3348 8.08242 14.1609L8.22954 14.1586Z" fill="var(--fill-0, #BAC4C2)"/>
<path id="Vector_3" d="M10.1077 14.7517C10.2451 14.7802 10.4627 14.7915 10.44 14.972C10.3489 15.0854 10.2788 15.0964 10.1369 15.1161L10.1016 15.1206C9.88559 15.1695 9.72131 15.303 9.50852 15.3716L9.52952 15.3247C9.51267 15.249 9.26393 15.0882 9.18195 15.0601C9.22148 15.0372 9.36841 14.982 9.41864 14.9619C9.63989 14.8657 9.75818 14.8351 10.0011 14.814C10.0739 14.8077 10.0762 14.7961 10.1077 14.7517Z" fill="var(--fill-0, #BAC4C2)"/>
<path id="Vector_4" d="M9.18195 15.0601C9.22148 15.0372 9.36841 14.982 9.41864 14.9619C9.53527 15.0982 9.90818 15.1006 10.1016 15.1206C9.88559 15.1695 9.72131 15.303 9.50852 15.3716L9.52952 15.3247C9.51267 15.249 9.26393 15.0882 9.18195 15.0601Z" fill="var(--fill-0, #8F999A)"/>
<path id="Vector_5" d="M10.1077 14.7517C10.2716 14.4218 10.4487 14.5845 10.6913 14.7271C10.7929 14.8672 10.7344 14.9586 10.686 15.1111C10.503 15.1166 10.3199 15.1182 10.1369 15.1161C10.2788 15.0964 10.3489 15.0854 10.44 14.972C10.4627 14.7915 10.2451 14.7802 10.1077 14.7517Z" fill="var(--fill-0, #757C7D)"/>
<path id="Vector_6" d="M4.31585 9.28868C4.33587 9.29731 4.36446 9.31509 4.38429 9.32646C4.40168 9.41276 4.35499 9.52247 4.32082 9.60324L4.31379 9.61556C4.22545 9.50927 4.24547 9.39485 4.31585 9.28868Z" fill="var(--fill-0, #1D1E1F)" fill-opacity="0.984314"/>
<path id="Vector_7" d="M14.4655 3.32428C14.482 3.24771 14.472 3.22498 14.5216 3.18389C15.1375 3.09984 17.5659 3.07048 18.1405 3.19116C18.6212 3.4916 19.0423 3.38953 19.5879 3.48595C19.6752 3.61678 19.85 3.74262 19.9797 3.83477C21.1347 4.65546 20.7936 6.61315 20.7068 7.81144C20.6617 8.41894 20.635 9.02766 20.6267 9.63677L20.6069 16.8829C20.6082 17.5017 20.6267 18.1217 20.6303 18.7444C20.6326 19.1656 20.6599 19.6076 20.6015 20.0315C20.5329 20.5295 20.0498 20.8143 19.6865 21.1044C19.4253 21.3132 18.6796 21.4985 18.3458 21.4341C17.7834 21.3255 17.389 21.0636 17.0274 20.618C16.9468 20.5187 16.9164 20.305 16.8592 20.1816C16.8124 20.0806 16.6716 20.0629 16.6503 19.9976C16.5305 19.6303 16.5655 18.9166 16.6039 18.5496C16.6434 18.3307 16.6514 18.3075 16.8201 18.1648C16.8282 18.1085 17.028 17.8809 17.0755 17.8327C17.2839 17.6879 17.3839 17.4537 17.5575 17.2499C18.0791 16.6377 18.6409 16.012 19.0184 15.2982C19.1009 15.1422 19.0517 14.9418 19.0865 14.7851C19.1174 14.6465 19.2044 14.437 19.2593 14.2992C19.3524 14.0652 19.3908 13.5878 19.3169 13.3514C19.2436 13.2791 19.1608 13.2972 19.144 13.2766C18.9705 13.0628 19.1651 12.4239 18.8869 12.2966C18.8301 12.2265 18.711 11.8564 18.6923 11.8413C18.459 11.6523 18.5288 11.5879 18.4373 11.418C18.1501 10.9033 17.6098 10.3996 17.1526 10.0334C16.9238 9.8502 16.7039 10.1193 16.5594 9.6225C16.291 9.61266 15.9592 9.64263 15.7087 9.60263C15.6953 9.51063 15.6729 9.4177 15.6525 9.32674C15.3111 9.25059 14.5835 9.28404 14.2253 9.33021C14.0141 9.35745 13.9002 9.42961 13.781 9.59904C13.4972 9.61622 13.3079 9.68147 13.0416 9.70791C12.7687 9.9765 12.3488 10.0576 12.1137 10.2891C11.5333 10.8695 10.8956 11.3775 10.3753 12.0153C10.2801 12.132 9.64833 12.3096 9.5568 12.5128C9.53883 12.5527 9.50259 12.5988 9.47801 12.6369C9.26883 12.7047 8.9877 12.669 8.7675 12.6654C8.2522 12.6568 7.74368 12.3156 7.38537 11.9642C7.00786 11.6232 7.01963 11.0949 7.02488 10.6132C7.03263 9.90232 7.91168 9.19371 8.38207 8.72137L10.149 6.93769L11.9975 5.11294C12.5405 4.56736 13.1441 3.90192 13.793 3.4736C13.902 3.4017 14.3815 3.41988 14.4655 3.32428Z" fill="var(--fill-0, #050505)"/>
<path id="Vector_8" d="M14.4655 3.32428C14.482 3.24771 14.472 3.22498 14.5216 3.18389C15.1375 3.09984 17.5659 3.07048 18.1405 3.19116C18.0405 3.62159 15.0406 3.44039 14.5167 3.38236C14.4924 3.36213 14.4775 3.35372 14.4655 3.32428Z" fill="var(--fill-0, #4C4D4D)"/>
<path id="Vector_9" d="M17.0755 17.8327C17.1499 17.8824 17.174 17.8929 17.2173 17.972C17.2185 18.1481 17.0707 18.2038 16.9627 18.3362C16.9182 18.2388 16.9078 18.2238 16.8201 18.1648C16.8282 18.1085 17.028 17.8809 17.0755 17.8327Z" fill="var(--fill-0, #1D1E1F)"/>
<path id="Vector_10" d="M16.8201 18.1648C16.9078 18.2238 16.9182 18.2388 16.9627 18.3362C16.8766 18.5629 16.8486 18.5279 16.6039 18.5496C16.6434 18.3307 16.6514 18.3075 16.8201 18.1648Z" fill="var(--fill-0, #4C4D4D)"/>
<path id="Vector_11" d="M8.2272 13.4975C8.24224 13.404 8.24264 13.3841 8.30295 13.3249C8.38976 13.2867 8.50505 13.311 8.60234 13.3219L8.62284 13.3279C8.6877 13.4422 8.74284 13.8785 8.70366 14.0388C8.71123 14.0439 8.7188 14.0491 8.72637 14.0542C8.84112 13.998 8.89207 13.9718 8.99646 13.8977C9.05859 13.9303 9.05784 13.9529 9.09994 14.0193L9.10437 14.1139C8.75604 14.0285 8.56343 14.1822 8.22954 14.1586C8.23008 14.0015 8.24534 13.6332 8.2272 13.4975Z" fill="var(--fill-0, #8F999A)" fill-opacity="0.913725"/>
<path id="Vector_12" d="M8.62284 13.3279C8.96426 13.5089 9.11013 13.5893 9.09994 14.0193C9.05784 13.9529 9.05859 13.9303 8.99646 13.8977C8.89207 13.9718 8.84112 13.998 8.72637 14.0542C8.7188 14.0491 8.71123 14.0439 8.70366 14.0388C8.74284 13.8785 8.6877 13.4422 8.62284 13.3279Z" fill="var(--fill-0, #757C7D)" fill-opacity="0.639216"/>
<path id="Vector_13" d="M6.90171 14.843L7.03784 14.853L7.05682 14.8601C7.16602 14.928 7.09357 15.0311 7.30261 15.1235C7.13505 15.1075 6.85784 15.1027 6.71562 15.079L6.69841 15.0476C6.76259 14.9338 6.82891 14.9678 6.90171 14.843Z" fill="var(--fill-0, #757C7D)" fill-opacity="0.988235"/>
</g>
</svg>
