<svg preserveAspectRatio="none" width="100%" height="100%" overflow="visible" style="display: block;" viewBox="0 0 96 96" fill="none" xmlns="http://www.w3.org/2000/svg">
<g id="image">
<path id="Vector" d="M49.7252 34.8309C50.3512 34.4923 56.266 31.1007 56.3987 30.9292C58.4111 28.3264 60.3601 24.3222 62.1603 21.4586C62.514 20.8959 63.6541 18.7729 63.9853 18.4843C65.008 18.8107 67.4109 20.9317 68.6427 21.402C69.2408 21.6303 70.9321 23.4114 71.6659 22.6444C73.3044 20.9316 74.3348 17.2977 77.4457 18.805C78.1417 19.1437 80.2718 20.0894 80.5851 20.8288C80.7544 21.1318 81.0395 21.5718 81.2994 21.7975C81.0665 21.7045 80.9315 21.5931 80.7287 21.4493L80.3266 21.8449C80.2181 21.7995 79.4014 21.3056 79.2547 21.2193C78.2163 20.6083 77.5484 20.2695 76.407 19.9163C75.9953 19.8207 75.7009 19.745 75.2742 19.7157C73.8611 21.1257 73.011 22.6684 72.4372 24.5055C72.4192 24.5629 72.2318 24.5438 72.1943 24.551C70.5833 24.2705 65.435 20.9803 64.2825 20.081C63.6081 21.4959 63.1058 22.4767 62.1966 23.7783C60.422 26.3469 59.2312 30.2359 56.6102 32.0711C55.2012 33.0577 53.1267 34.0882 51.5636 34.8755C50.8873 35.2162 50.1361 35.9949 49.3098 35.7619C48.6559 35.0324 48.1682 33.963 47.5092 33.1453C44.9364 29.9527 41.2512 27.5185 37.0687 27.2803C34.4572 27.1467 31.8985 28.048 29.9474 29.7888C24.4006 34.7785 23.5424 44.8762 21.1635 51.7772C22.0014 52.4287 22.0754 52.6491 22.2056 53.6972C22.2178 53.7952 22.2294 53.8931 22.2406 53.9912C21.7626 55.0024 21.3588 55.1378 20.3966 55.7011C20.1046 55.6047 19.3306 55.2913 19.0771 55.3835C18.8754 55.7304 19.0256 55.83 18.8436 56.0636C18.0398 57.0946 16.9898 58.0656 16.0682 59.0034C15.2574 59.8285 14.5118 60.7624 13.7333 61.566C12.7021 62.6306 11.8125 63.5406 10.8352 64.6643C10.3389 65.2349 9.83766 66.3061 9.58538 66.5458L9.37368 66.5693C9.15309 66.8656 8.4037 69.1354 8.35176 69.5225C8.23733 71.3121 7.95868 76.2732 8.46058 77.8469C8.7057 78.1284 8.94139 78.6474 9.1471 78.9785C9.732 79.9199 10.3704 80.7592 11.1818 81.516C11.9206 82.3151 13.3496 82.8 13.4973 83.011C14.8085 83.3785 17.7195 83.4942 19.0444 83.0997C22.5111 81.9949 23.7226 78.6232 28.3385 78.3351C28.7678 78.5589 28.54 78.7296 29.0953 78.7619C29.6459 78.7939 30.2227 78.7238 30.7598 78.8431C28.8529 78.8101 28.3251 79.716 27.0885 79.88C23.421 80.3662 21.906 84.0815 18.33 84.3702C15.1133 84.63 13.2056 84.5985 10.6193 82.6118C7.89653 80.5202 7.0583 77.891 6.48116 74.6408C6.10452 72.4736 6.86093 69.853 7.46182 67.7768C8.97952 63.9689 12.575 61.2763 15.2564 58.3184C16.1918 57.2791 17.2805 55.9188 18.1607 54.8129C18.0536 54.2148 17.9861 53.8035 17.94 53.196C18.1835 52.6063 18.5767 51.6954 19.2574 51.3673C19.2594 51.3663 19.8977 51.3647 19.9326 51.2609C20.0702 50.8518 20.3173 49.9286 20.4153 49.564L22.5371 41.7056C22.8673 40.5129 23.1407 39.11 23.5246 37.9676C25.1894 33.0136 28.6333 27.3997 34.2099 26.4786C35.7298 26.2275 35.8399 25.5823 37.7218 25.9747C42.5153 26.974 48.1418 29.8566 49.7252 34.8309Z" fill="var(--fill-0, #E8DF74)"/>
<path id="Vector_2" d="M8.46058 77.8469C7.47413 77.0838 7.84149 74.6445 7.85884 73.4707C7.86925 72.7664 7.83224 70.0557 8.11794 69.5392L8.35176 69.5225C8.23733 71.3121 7.95868 76.2732 8.46058 77.8469Z" fill="var(--fill-0, #7D9E68)"/>
<path id="Vector_3" d="M13.4973 83.011C14.8085 83.3785 17.7195 83.4942 19.0444 83.0997C17.7776 84.0654 15.9148 83.9065 14.395 83.5997C14.0512 83.5302 13.7474 83.2508 13.4973 83.011Z" fill="var(--fill-0, #7D9E68)"/>
<path id="Vector_4" d="M76.407 19.9163L76.4851 19.6968C77.084 19.5304 79.7576 20.8877 80.3518 21.2206C80.4807 21.2914 80.6064 21.3677 80.7287 21.4493L80.3266 21.8449C80.2181 21.7995 79.4014 21.3056 79.2547 21.2193C78.2163 20.6083 77.5484 20.2695 76.407 19.9163Z" fill="var(--fill-0, #988946)"/>
<path id="Vector_5" d="M82.529 22.5152L82.8256 22.538C82.8591 22.3753 82.8704 22.3442 82.9314 22.1887C83.2961 22.099 83.7308 22.2764 84.1027 22.3872C85.0432 22.9479 85.4321 23.4433 86.5349 24.0362C87.0164 23.9468 89.6939 25.3058 89.9993 25.7984C90.0206 26.3028 89.4422 26.9476 89.2061 27.667C88.3059 30.4106 87.5107 33.0849 86.5919 35.8387C83.5868 44.7668 80.7444 53.7489 78.066 62.7804C77.9741 63.0863 77.7385 63.2844 77.6645 63.5786C76.2749 69.0968 74.1339 74.3909 72.6653 79.8872C72.5217 80.4244 72.6903 80.9694 72.4503 81.4953C71.6328 82.0828 66.3723 78.5032 65.0901 77.8907C62.2389 76.5287 58.9245 73.0802 55.522 75.0548C54.7897 75.4798 54.2918 76.4501 53.4783 76.3572C53.0671 76.1104 52.5415 75.403 52.2068 75.0068C48.1251 75.1514 45.0627 78.1274 41.2914 79.2523C41.0153 79.3347 40.5715 79.0466 40.303 78.8993C40.4959 78.8088 40.8765 78.7442 41.0981 78.697C41.3651 78.4642 41.2862 78.5534 41.3756 78.1632C44.4731 76.9399 48.4562 74.2251 51.6912 73.8908C52.5459 73.8025 53.0567 74.6112 53.6401 75.2472C54.1901 74.4481 55.0251 73.9041 55.9702 73.7348C57.1297 73.5269 59.2874 73.5649 60.3935 73.9569C61.1573 74.2276 62.7476 75.2257 63.4805 75.6591L68.5524 78.643C69.3906 79.1383 70.4089 79.5713 71.1443 80.0729L83.3963 41.146C84.6493 37.0977 85.7581 32.9909 87.2079 28.9991C87.5243 28.1281 87.6398 26.8616 88.0978 26.1179C86.8884 25.808 85.7193 24.8648 84.6019 24.2688C83.8745 23.8807 83.0449 23.4802 82.366 23.0453L82.5526 22.5826L82.529 22.5152Z" fill="var(--fill-0, #E8DF74)"/>
<path id="Vector_6" d="M82.529 22.5152L82.8256 22.538C82.8591 22.3753 82.8704 22.3442 82.9314 22.1887C83.2961 22.099 83.7308 22.2764 84.1027 22.3872C85.0432 22.9479 85.4321 23.4433 86.5349 24.0362C86.3269 24.1715 86.2318 24.1659 85.9871 24.1567L86.4634 24.5294L86.3785 24.6251C86.7598 24.8677 88.0146 25.5532 88.2023 25.785L88.2416 26.0006L88.0978 26.1179C86.8884 25.808 85.7193 24.8648 84.6019 24.2688C83.8745 23.8807 83.0449 23.4802 82.366 23.0453L82.5526 22.5826L82.529 22.5152Z" fill="var(--fill-0, #988946)"/>
<path id="Vector_7" d="M82.529 22.5152L82.8256 22.538C82.8591 22.3753 82.8704 22.3442 82.9314 22.1887C83.2961 22.099 83.7308 22.2764 84.1027 22.3872C85.0432 22.9479 85.4321 23.4433 86.5349 24.0362C86.3269 24.1715 86.2318 24.1659 85.9871 24.1567L86.4634 24.5294L86.3785 24.6251C85.8057 24.4051 83.5075 23.0238 82.5526 22.5826L82.529 22.5152Z" fill="var(--fill-0, #F0DC7F)"/>
<path id="Vector_8" d="M28.3385 78.3351C28.7354 78.1965 30.5142 78.0946 30.9479 78.0802C32.9444 78.0127 34.9423 78.0051 36.9392 78.0575C38.373 78.1071 39.9766 78.3045 41.3756 78.1632C41.2862 78.5534 41.3651 78.4642 41.0981 78.697C40.8765 78.7442 40.4959 78.8088 40.303 78.8993C39.2563 78.9289 37.8796 78.8769 36.7836 78.8729C35.0504 78.8666 32.3933 79.0372 30.7598 78.8431C30.2227 78.7238 29.6459 78.7939 29.0953 78.7619C28.54 78.7296 28.7678 78.5589 28.3385 78.3351Z" fill="url(#paint0_linear_0_4)"/>
<path id="Vector_9" d="M80.5851 20.8288C81.2965 21.0412 83.5248 21.9765 84.1027 22.3872C83.7308 22.2764 83.2961 22.099 82.9314 22.1887C82.8704 22.3442 82.8591 22.3753 82.8256 22.538L82.529 22.5152C82.3097 22.3402 81.598 21.9824 81.2994 21.7975C81.0395 21.5718 80.7544 21.1318 80.5851 20.8288Z" fill="var(--fill-0, #E8DF74)" fill-opacity="0.67451"/>
<path id="Vector_10" d="M80.7287 21.4493C80.9315 21.5931 81.0665 21.7045 81.2994 21.7975C81.598 21.9824 82.3097 22.3402 82.529 22.5152L82.5526 22.5826L82.366 23.0453C81.7724 22.7224 80.8293 22.2406 80.3266 21.8449L80.7287 21.4493Z" fill="var(--fill-0, #988946)"/>
</g>
<defs>
<linearGradient id="paint0_linear_0_4" x1="34.9107" y1="77.122" x2="35.4427" y2="79.6337" gradientUnits="userSpaceOnUse">
<stop stop-color="#63734E"/>
<stop offset="1" stop-color="#7A827B"/>
</linearGradient>
</defs>
</svg>
