<svg preserveAspectRatio="none" width="100%" height="100%" overflow="visible" style="display: block;" viewBox="0 0 40 40" fill="none" xmlns="http://www.w3.org/2000/svg">
<g id="image">
<path id="Vector" d="M2.44653 12.4118C2.37629 12.2045 2.35744 11.518 2.54451 11.3373C2.65631 11.2806 2.71632 11.308 2.83635 11.337L2.86693 11.3411C3.07798 11.3684 3.14525 11.3001 3.30297 11.3587C3.39315 11.4846 3.3184 12.1803 3.30583 12.355C3.29923 12.4466 3.21315 12.5021 3.13752 12.5496L3.10881 12.5674C3.0103 12.8058 2.9613 12.939 2.89348 13.1875C2.9086 14.1569 2.7832 21.2316 2.96205 21.5758C3.2292 21.7159 4.61176 21.6887 4.99375 21.6791C5.59652 21.664 7.7634 21.9162 8.08848 21.4886C8.24082 20.9938 8.13352 20.1773 8.16832 19.6252C8.15297 19.4502 8.1659 19.101 8.16797 18.9119C8.22824 18.5453 8.12215 18.2966 8.23957 17.925C8.34633 17.8326 8.31219 17.8596 8.4784 17.8502C8.36106 18.6604 8.54332 21.953 8.37227 22.3546C8.11309 22.7585 7.6032 22.8159 7.17348 22.8022C5.87227 22.7608 4.53715 22.8484 3.23928 22.7739C2.7039 22.4621 2.58993 22.2783 2.60358 21.6768C2.63694 20.2068 2.5471 18.6759 2.62022 17.2116C2.58546 16.5937 2.62578 12.8546 2.44653 12.4118Z" fill="url(#paint0_linear_0_29)"/>
<path id="Vector_2" d="M2.44653 12.4118C2.37629 12.2045 2.35744 11.518 2.54451 11.3373C2.65631 11.2806 2.71632 11.308 2.83635 11.337L2.86693 11.3411C3.07798 11.3684 3.14525 11.3001 3.30297 11.3587C3.39315 11.4846 3.3184 12.1803 3.30583 12.355C3.29923 12.4466 3.21315 12.5021 3.13752 12.5496L3.10881 12.5674L3.09589 12.1366C2.9881 12.3466 3.00537 12.3257 2.80983 12.4434L2.80404 12.3384L2.74277 12.434C2.63581 12.4554 2.55269 12.4318 2.44653 12.4118Z" fill="var(--fill-0, #E0460E)"/>
<path id="Vector_3" d="M2.83635 11.337L2.86693 11.3411C3.07798 11.3684 3.14525 11.3001 3.30297 11.3587C3.39315 11.4846 3.31839 12.1803 3.30583 12.355C3.29923 12.4466 3.21314 12.5021 3.13752 12.5496L3.10881 12.5674L3.09589 12.1366C3.09752 11.9161 3.05263 11.4882 2.84404 11.3581L2.83635 11.337Z" fill="var(--fill-0, #B04F11)"/>
<path id="Vector_4" d="M2.84404 11.3581C3.05263 11.4882 3.09752 11.9161 3.09589 12.1366C2.9881 12.3466 3.00537 12.3257 2.80983 12.4434L2.80403 12.3384C2.80996 12.0356 2.80737 11.6514 2.84404 11.3581Z" fill="var(--fill-0, #F3E2CD)"/>
<path id="Vector_5" d="M2.80983 12.4434C3.00537 12.3257 2.9881 12.3466 3.09589 12.1366L3.1088 12.5674C3.0103 12.8058 2.9613 12.939 2.89348 13.1875L2.81437 13.1257C2.80554 13.8438 2.77355 14.5598 2.68311 15.2727C2.626 15.7228 2.7551 16.8476 2.62022 17.2116C2.58546 16.5937 2.62578 12.8546 2.44653 12.4118C2.55269 12.4318 2.63581 12.4554 2.74276 12.434L2.80403 12.3384L2.80983 12.4434Z" fill="var(--fill-0, #CB9875)"/>
<path id="Vector_6" d="M2.80983 12.4434C3.00537 12.3257 2.9881 12.3466 3.09589 12.1366L3.1088 12.5674C3.0103 12.8058 2.9613 12.939 2.89348 13.1875L2.81437 13.1257C2.81891 12.9037 2.80466 12.6754 2.80983 12.4434Z" fill="var(--fill-0, #E9CCC2)"/>
<path id="Vector_7" d="M8.16797 18.9119C8.22824 18.5453 8.12215 18.2966 8.23957 17.925C8.34633 17.8326 8.31219 17.8596 8.4784 17.8502C8.36105 18.6604 8.54332 21.953 8.37227 22.3546C8.34141 22.1958 8.35949 21.8871 8.34047 21.7025C8.30391 21.3475 8.25148 21.0088 8.2282 20.6531C8.20894 20.3586 8.24004 19.8937 8.16832 19.6252C8.15297 19.4502 8.1659 19.101 8.16797 18.9119Z" fill="var(--fill-0, #CB9875)"/>
<path id="Vector_8" d="M16.5755 22.6023C16.6114 22.3747 16.722 22.1987 16.8723 22.0298C16.8877 22.3101 16.9054 22.8358 16.8729 23.1125C16.9578 23.823 16.9076 24.7775 16.8988 25.5005C16.8947 25.8362 16.8977 26.5845 16.861 26.8954C16.7718 27.7954 16.3112 28.0379 15.4394 28.0323C14.7107 28.0275 14.4622 28.0563 13.9263 27.5285C13.7489 26.9709 13.7835 25.3752 13.7972 24.7419C13.7898 24.6129 13.8345 23.5029 13.8527 23.4121L13.8927 23.486L13.9043 23.458C14.1556 23.8717 13.9807 23.9239 14.0614 24.1005C14.0709 24.1861 14.0909 24.322 14.0898 24.4033C14.1276 25.0375 13.9173 26.4399 14.336 26.8341C14.5713 27.0558 16.4362 27.1997 16.5279 26.6268C16.6501 25.8629 16.5138 25.0452 16.5956 24.2791C16.5871 24.0605 16.5904 23.8626 16.5946 23.6447C16.5606 23.2983 16.5542 22.9497 16.5755 22.6023Z" fill="var(--fill-0, #8B877D)"/>
<path id="Vector_9" d="M16.5755 22.6023C16.6114 22.3747 16.722 22.1987 16.8723 22.0298C16.8877 22.3101 16.9054 22.8358 16.8729 23.1125C16.9578 23.823 16.9076 24.7775 16.8988 25.5005C16.8947 25.8362 16.8977 26.5845 16.861 26.8954L16.8248 26.8911C16.7789 26.6865 16.6683 26.5065 16.6541 26.4144C16.5479 25.7271 16.652 24.9744 16.5956 24.2791C16.5871 24.0605 16.5904 23.8626 16.5946 23.6447C16.5606 23.2983 16.5542 22.9497 16.5755 22.6023Z" fill="var(--fill-0, #C7B7A9)"/>
<path id="Vector_10" d="M16.5755 22.6023C16.6114 22.3747 16.722 22.1987 16.8723 22.0298C16.8877 22.3101 16.9054 22.8358 16.8729 23.1125C16.801 22.9737 16.8544 22.8958 16.7623 22.7578L16.6892 22.7616L16.7206 22.7147L16.7628 22.7678L16.6793 22.8087C16.6607 23.1182 16.6457 23.3403 16.5946 23.6447C16.5606 23.2983 16.5542 22.9497 16.5755 22.6023Z" fill="var(--fill-0, #C9A68E)"/>
<path id="Vector_11" d="M13.8527 23.4121L13.8927 23.486L13.9043 23.458C14.1556 23.8717 13.9807 23.9239 14.0614 24.1005C14.0709 24.1861 14.0909 24.322 14.0898 24.4033C14.0102 24.7067 14.0372 25.3901 14.0007 25.7377C13.9695 26.0362 13.9328 26.1699 13.853 26.4678C13.8445 26.1634 13.8602 24.915 13.7972 24.7419C13.7898 24.6129 13.8345 23.5029 13.8527 23.4121Z" fill="var(--fill-0, #716954)"/>
<path id="Vector_12" d="M37.3033 11.793C37.3691 12.1539 37.2662 12.3395 37.4859 12.4932L37.5633 12.435C37.7102 12.9352 37.6409 13.8261 37.6508 14.3765C37.6817 16.0999 37.638 17.828 37.632 19.552C37.6311 20.1507 37.6336 20.7495 37.6395 21.3482C37.6433 21.66 37.6705 22.2758 37.62 22.5612C37.6257 22.7401 37.6025 22.8203 37.4875 22.9508C37.3729 22.9981 37.4236 22.995 37.2949 22.9537C37.0872 22.7365 37.1291 22.5115 37.1269 22.2081C36.9913 21.5728 37.0044 18.7332 37.0575 18.0276C37.2249 17.8899 37.2197 17.1867 37.23 16.9676L37.227 16.5861C37.2137 16.3402 37.2138 16.0631 37.2204 15.8166C37.2553 14.5032 37.1772 13.097 37.3033 11.793Z" fill="var(--fill-0, #C9A68E)"/>
<path id="Vector_13" d="M37.3033 11.793C37.3691 12.1539 37.2662 12.3395 37.4859 12.4932C37.4448 13.0429 37.4691 13.5784 37.4305 14.1248C37.376 14.8985 37.3468 15.6686 37.3223 16.4433C37.3208 16.4846 37.2523 16.5559 37.227 16.5861C37.2137 16.3402 37.2138 16.0631 37.2203 15.8166C37.2553 14.5032 37.1771 13.097 37.3033 11.793Z" fill="var(--fill-0, #E5A07C)"/>
<path id="Vector_14" d="M37.1269 22.2081L37.1716 22.1891C37.1944 21.9993 37.2189 21.7838 37.468 21.8328C37.645 22.0279 37.5077 22.2415 37.62 22.5613C37.6257 22.7401 37.6025 22.8203 37.4875 22.9508C37.3729 22.9981 37.4236 22.995 37.2949 22.9537C37.0872 22.7365 37.1291 22.5115 37.1269 22.2081Z" fill="var(--fill-0, #A5744F)"/>
<path id="Vector_15" d="M19.8182 21.2984C20 21.0118 19.864 18.0194 19.9151 17.3706C20.0008 18.3306 19.8563 20.1082 19.9567 21.1262C19.9822 21.1501 20.004 21.1706 20.0221 21.1876C20.1023 21.1975 20.2338 21.2026 20.3099 21.1675C20.3921 22.2323 23.1311 20.8001 23.4029 22.1297C23.3745 22.5568 23.3869 23.037 23.3884 23.4686L23.343 23.4634L23.3315 23.4429C23.2986 23.3856 23.2913 23.3602 23.2329 23.3294C22.8322 22.1401 20.5915 23.3332 19.9609 22.5147C19.9016 22.4567 19.7968 22.4024 19.7226 22.3589L19.6678 22.3285C19.6026 22.1507 19.6104 21.8614 19.6048 21.6637C19.5787 21.4373 19.6857 21.1525 19.7538 20.9243C19.7688 21.0356 19.785 21.1958 19.8182 21.2984Z" fill="var(--fill-0, #A5744F)"/>
<path id="Vector_16" d="M19.7538 20.9243C19.7688 21.0356 19.785 21.1958 19.8182 21.2984C19.8373 21.3543 19.8474 21.3706 19.8925 21.409C19.9404 21.7202 19.9556 22.1921 19.9609 22.5147C19.9016 22.4567 19.7968 22.4024 19.7226 22.3589L19.6678 22.3285C19.6026 22.1507 19.6104 21.8614 19.6048 21.6637C19.5787 21.4373 19.6857 21.1525 19.7538 20.9243Z" fill="var(--fill-0, #F3E2CD)"/>
<path id="Vector_17" d="M33.4565 23.8569L33.4498 23.8271C33.3976 23.5835 33.4112 23.2259 33.3888 22.9646C33.2926 21.843 33.2912 20.7115 33.2816 19.5857C33.2761 18.9416 33.2605 18.2573 33.3296 17.6193C33.3569 17.3669 33.3816 17.2517 33.5207 17.0377C33.6389 17.3624 33.5646 17.6656 33.6749 18.0322L33.7252 18.0875C33.7472 19.7184 33.7579 21.3493 33.7575 22.9804C33.7618 23.8174 33.7942 24.6539 33.7816 25.4899C33.8099 26.3835 34.1129 27.6401 33.154 28.0595C32.9727 27.9823 32.7867 27.9064 32.6106 27.8189L32.5126 27.2622C32.5483 27.0886 32.757 26.7488 32.7618 26.6766C32.7759 26.4641 32.7602 26.1835 32.7789 25.9361C32.8292 26.26 32.7057 26.8449 33.0751 26.9711C33.4886 26.9113 33.4763 26.3763 33.476 26.0518C33.4753 25.3236 33.4176 24.5839 33.4565 23.8569Z" fill="var(--fill-0, #E9CCC2)"/>
<path id="Vector_18" d="M33.6412 23.16C33.7934 23.3731 33.6651 24.9318 33.7816 25.4899C33.8099 26.3835 34.1129 27.6401 33.154 28.0595C32.9727 27.9823 32.7867 27.9064 32.6106 27.8189L32.5126 27.2622C32.5483 27.0886 32.757 26.7488 32.7618 26.6766C32.7759 26.4641 32.7602 26.1835 32.7789 25.9361C32.8292 26.26 32.7057 26.8449 33.0751 26.9711C33.4886 26.9113 33.4763 26.3763 33.476 26.0518C33.4753 25.3236 33.4176 24.5839 33.4565 23.8569C33.5454 24.0854 33.4829 25.7498 33.522 26.164L33.5399 26.1501C33.6081 25.2208 33.6002 24.1222 33.6412 23.16Z" fill="url(#paint1_linear_0_29)"/>
<path id="Vector_19" d="M33.6749 18.0322L33.7252 18.0875C33.7471 19.7184 33.7579 21.3493 33.7575 22.9804C33.7618 23.8174 33.7942 24.6539 33.7816 25.4899C33.6651 24.9318 33.7934 23.3731 33.6412 23.16C33.6348 23.0809 33.6386 22.9614 33.6418 22.88C33.7052 21.2662 33.6373 19.6445 33.6749 18.0322Z" fill="var(--fill-0, #8B877D)"/>
<path id="Vector_20" d="M29.2563 17.997L29.4697 18.118C29.4653 19.0009 29.4263 20.1868 29.4851 21.0323C29.5699 22.2541 31.9956 21.2373 32.6131 21.8029C32.8281 21.9879 32.7779 23.0182 32.7746 23.3423C32.5536 23.2196 32.5179 22.9199 32.2567 22.9648C32.2422 22.9216 32.2033 22.8865 32.1711 22.8492C31.9286 22.7382 30.7664 22.7947 30.4234 22.8067C29.0462 22.8547 29.272 22.4396 29.2482 21.3112C29.2236 20.2066 29.2263 19.1015 29.2563 17.997Z" fill="url(#paint2_linear_0_29)"/>
<path id="Vector_21" d="M12.7004 12.1754C12.7238 11.7726 12.7736 11.4318 13.1658 11.2052C13.4045 11.0673 13.5489 11.4348 13.6032 11.5908C13.723 12.2054 13.7357 13.2186 13.6968 13.8303C13.7542 14.4644 13.7368 15.6483 13.6735 16.2913C13.7022 16.964 13.492 21.3296 13.6734 21.5862C13.5172 21.6366 13.553 21.4718 13.4334 21.641L13.2631 21.6977C13.3147 20.9457 13.2878 19.5191 13.2854 18.7326C13.279 16.6836 13.3688 14.3911 13.247 12.3689L13.1193 12.3234C12.9789 12.3403 12.8538 12.2682 12.7219 12.2099L12.7004 12.1754Z" fill="url(#paint3_linear_0_29)"/>
<path id="Vector_22" d="M12.7004 12.1754C12.7238 11.7726 12.7736 11.4318 13.1658 11.2052C13.4045 11.0673 13.5489 11.4348 13.6032 11.5908C13.6011 11.8129 13.6045 12.0744 13.592 12.2927L13.247 12.3689L13.1193 12.3234C12.9789 12.3403 12.8538 12.2682 12.7219 12.2099L12.7004 12.1754Z" fill="var(--fill-0, #E0460E)"/>
<path id="Vector_23" d="M13.6735 16.2913C13.5603 15.8258 13.6247 14.3116 13.6526 13.8106L13.6968 13.8303C13.7542 14.4644 13.7368 15.6483 13.6735 16.2913Z" fill="var(--fill-0, #E5A07C)"/>
<path id="Vector_24" d="M12.7004 12.1754L12.7219 12.2099C12.8537 12.2682 12.9789 12.3403 13.1193 12.3234C13.0542 12.4841 13.0604 13.5748 13.0603 13.8451L13.0939 19.6817C13.0941 20.2701 13.1453 21.6259 13.0326 22.1264C12.8708 21.7156 13.1058 21.6384 12.7453 21.3589L12.727 21.3716L12.6915 21.3505L12.6655 21.0798C12.6874 18.152 12.4393 15.0651 12.7004 12.1754Z" fill="var(--fill-0, #A5744F)"/>
<path id="Vector_25" d="M12.7004 12.1754L12.7219 12.2099C12.7428 12.9862 12.8131 13.7968 12.8139 14.5587C12.8163 16.8267 12.7578 19.0881 12.7453 21.3589L12.727 21.3716L12.6915 21.3505L12.6655 21.0798C12.6874 18.152 12.4393 15.0651 12.7004 12.1754Z" fill="var(--fill-0, #E9CCC2)"/>
<path id="Vector_26" d="M33.5207 17.0377C34.1336 16.1759 35.2687 16.4293 36.1897 16.4173C36.6388 16.4114 36.9596 16.6412 37.23 16.9676C37.2197 17.1867 37.2249 17.8899 37.0575 18.0276C37.0307 17.9298 36.953 17.6614 36.8573 17.6382C36.1 17.4551 34.8966 17.6296 34.1448 17.5575C33.9721 17.708 33.7596 17.8571 33.7252 18.0875L33.6749 18.0322C33.5646 17.6656 33.6389 17.3624 33.5207 17.0377Z" fill="var(--fill-0, #C56122)"/>
<path id="Vector_27" d="M20.0448 12.2739C20.1142 12.4973 20.1288 12.5855 20.2449 12.7873L20.2757 12.7843C20.2961 12.8389 20.3103 12.8632 20.3065 12.9222C20.3995 12.9676 20.3877 12.9448 20.432 13.0202C20.2749 13.8295 20.3697 14.2247 20.3578 14.9773C20.3406 16.055 20.4652 17.5177 20.3808 18.5592C20.3288 19.4648 20.3427 20.2922 20.3099 21.1675C20.2338 21.2026 20.1023 21.1975 20.0221 21.1876C20.004 21.1706 19.9822 21.1501 19.9567 21.1262C19.8563 20.1082 20.0008 18.3306 19.9151 17.3706C19.9096 17.2842 19.9141 17.1827 19.9139 17.0951C19.9093 15.5757 19.9336 14.0587 19.9017 12.5395C19.9379 12.3638 19.9223 12.4188 20.0448 12.2739Z" fill="var(--fill-0, #CB9875)"/>
<path id="Vector_28" d="M20.3065 12.9222C20.3995 12.9676 20.3877 12.9448 20.432 13.0202C20.2749 13.8295 20.3697 14.2247 20.3578 14.9773C20.3406 16.055 20.4652 17.5177 20.3808 18.5592C20.2196 18.3596 20.3133 18.3365 20.2456 18.2408C20.2165 18.2897 20.2168 18.2864 20.1708 18.3209C20.1056 17.9773 20.1489 17.2734 20.1633 16.8947L20.2502 14.7957C20.2769 14.1545 20.2328 13.5716 20.3065 12.9222Z" fill="var(--fill-0, #E5A07C)"/>
<path id="Vector_29" d="M26.5663 17.9681C26.6827 17.9284 26.8001 17.9151 26.9217 17.8966C26.9818 18.1583 26.9406 18.9072 26.9522 19.2192C26.9946 20.3667 27.0998 21.7013 26.9129 22.8429C26.8671 23.0728 26.8757 23.3254 26.8448 23.4753C26.8347 23.6051 26.7971 23.9891 26.8052 24.0984C26.7666 25.0698 26.7469 26.0417 26.7462 27.0138L26.7128 26.955C26.6146 26.921 26.5986 26.9173 26.5402 26.8328C26.5838 26.5469 26.5045 25.9347 26.502 25.6146C26.4979 25.0644 26.4959 24.5113 26.4941 23.9611C26.4525 22.8278 26.4555 21.6613 26.4739 20.5285C26.4876 19.6863 26.4223 18.7925 26.5663 17.9681Z" fill="var(--fill-0, #C9A68E)"/>
<path id="Vector_30" d="M26.8448 23.4753C26.8347 23.6051 26.7971 23.9891 26.8052 24.0984C26.7666 25.0698 26.7469 26.0417 26.7462 27.0138L26.7128 26.955C26.6146 26.921 26.5986 26.9173 26.5402 26.8328C26.5838 26.5469 26.5045 25.9347 26.502 25.6146C26.4979 25.0644 26.4959 24.5113 26.4941 23.9611C26.5215 24.052 26.5359 24.1684 26.5511 24.2638L26.619 23.6136C26.7005 23.8389 26.5499 24.207 26.714 24.3909C26.7077 24.2493 26.7536 23.5933 26.8448 23.4753Z" fill="var(--fill-0, #8B877D)"/>
<path id="Vector_31" d="M26.5662 17.9681C26.5397 17.5011 26.5405 17.2213 26.8602 16.8368C27.361 16.2344 28.6921 16.2837 29.2636 16.7333C29.5457 16.9553 29.5235 17.7808 29.4697 18.118L29.2563 17.997C29.1263 17.3482 28.1992 17.6016 27.6973 17.5955C27.397 17.592 27.0659 17.6117 26.9217 17.8966C26.8001 17.9151 26.6827 17.9284 26.5662 17.9681Z" fill="var(--fill-0, #C56122)"/>
<path id="Vector_32" d="M12.6655 21.0798L12.6915 21.3505L12.727 21.3716L12.7453 21.3589C13.1058 21.6384 12.8708 21.7156 13.0326 22.1264C13.0055 22.3349 12.5586 22.6541 12.3832 22.7714C11.5835 22.837 10.1157 23.0264 9.97109 21.9235C10.0171 21.6643 9.95699 21.6218 10.0627 21.3121L10.1164 21.2914C10.2662 21.387 10.3125 21.5282 10.4693 21.5942C11.0876 21.9041 11.9952 21.72 12.6641 21.6225L12.6655 21.0798Z" fill="var(--fill-0, #A5744F)"/>
<path id="Vector_33" d="M25.5095 22.1363C25.694 22.7734 25.5939 25.9561 25.5756 26.8513C25.7602 26.9018 25.8541 26.9362 26.0303 27.0115C26.1741 26.9672 26.4156 26.9019 26.5402 26.8328C26.5986 26.9173 26.6146 26.921 26.7128 26.955L26.7462 27.0138C26.756 27.2086 26.7495 27.4353 26.7489 27.6326C26.5812 27.8252 26.5207 27.8645 26.3143 28.0051C26.1191 28.0144 25.895 28.008 25.6974 28.007C25.5552 27.9032 25.4471 27.7776 25.3276 27.649C25.1548 26.0119 25.1114 24.7303 25.2204 23.0748L25.2567 22.9834C25.3576 22.9714 25.3752 22.9748 25.4603 22.9248C25.5077 22.7977 25.4948 22.3315 25.5095 22.1363Z" fill="var(--fill-0, #8B877D)"/>
<path id="Vector_34" d="M17.7936 17.7245C17.9672 17.7065 17.9066 17.7325 18.0529 17.6318C18.0494 18.4212 18.0388 19.2234 18.0459 20.0118C18.0228 19.9356 17.9851 19.8788 17.9455 19.8101L17.895 19.812L17.7738 20.0011C17.7778 20.1842 17.7995 20.6966 17.7779 20.8531L17.7978 20.8845C17.8023 21.159 17.8025 21.2861 17.9411 21.5229C18.3866 21.7963 18.8595 21.8629 19.3488 21.5656C19.4586 21.4989 19.4494 21.3668 19.4614 21.2502C19.507 21.3702 19.5794 21.544 19.6048 21.6637C19.6104 21.8614 19.6026 22.1507 19.6678 22.3285L19.7226 22.3589C19.6588 22.4302 19.5892 22.496 19.5146 22.5558C19.0728 22.9164 17.6468 23.0341 17.6647 22.1918C17.6714 21.8755 17.6624 21.5668 17.6994 21.2497C17.6795 20.233 17.6779 19.2159 17.6943 18.1991L17.7366 18.185L17.7936 17.7245Z" fill="var(--fill-0, #A5744F)"/>
<path id="Vector_35" d="M17.7936 17.7245C17.9672 17.7065 17.9066 17.7325 18.0529 17.6318C18.0494 18.4212 18.0388 19.2234 18.0459 20.0118C18.0228 19.9356 17.9851 19.8788 17.9455 19.8101L17.895 19.812L17.7738 20.0011C17.7303 19.8046 17.7538 18.55 17.7366 18.185L17.7936 17.7245Z" fill="url(#paint4_linear_0_29)"/>
<path id="Vector_36" d="M8.16797 18.9119C8.14594 18.4495 8.17363 17.96 8.14812 17.5037C8.08047 16.2935 9.43129 16.0734 10.195 16.8169C10.3082 17.272 10.2602 17.4411 10.3016 17.8962C10.136 17.9236 10.0915 17.9154 9.92328 17.8931C9.87687 17.7168 9.90453 17.7191 9.79383 17.6014C9.4777 17.5027 9.00605 17.5184 8.67965 17.6115C8.56988 17.6428 8.52285 17.7504 8.4784 17.8502C8.31219 17.8596 8.34633 17.8326 8.23957 17.925C8.12215 18.2966 8.22824 18.5453 8.16797 18.9119Z" fill="var(--fill-0, #C56122)"/>
<path id="Vector_37" d="M19.4498 12.0596C19.4779 12.2364 19.4493 12.2461 19.5519 12.3531L19.651 12.3557C19.6991 13.2686 19.627 14.5681 19.6479 15.5411C19.6672 16.4366 19.758 18.0412 19.6928 18.8725C19.7066 19.1814 19.7896 20.7363 19.7538 20.9243C19.6857 21.1525 19.5787 21.4373 19.6048 21.6637C19.5794 21.544 19.507 21.3702 19.4614 21.2502C19.4092 20.6743 19.4169 19.8265 19.4244 19.2395C19.3888 18.2069 19.4212 16.98 19.412 15.9194C19.4021 14.8003 19.3456 13.1341 19.4498 12.0596Z" fill="var(--fill-0, #C56122)"/>
<path id="Vector_38" d="M19.4244 19.2395C19.4873 18.9345 19.4475 17.7596 19.484 17.3798C19.5015 17.1978 19.4596 16.936 19.516 16.7411C19.7749 17.0672 19.5409 18.4118 19.6928 18.8725C19.7066 19.1814 19.7896 20.7363 19.7537 20.9243C19.6857 21.1525 19.5787 21.4373 19.6048 21.6637C19.5794 21.544 19.507 21.3702 19.4614 21.2502C19.4092 20.6743 19.4169 19.8265 19.4244 19.2395Z" fill="var(--fill-0, #E5A07C)"/>
<path id="Vector_39" d="M32.2567 22.9648C32.5179 22.9199 32.5536 23.2196 32.7747 23.3423L32.7789 25.9361C32.7602 26.1835 32.7759 26.4641 32.7618 26.6766C32.757 26.7488 32.5483 27.0886 32.5126 27.2622C32.4521 26.8354 32.2939 26.2319 32.2668 25.8297C32.2217 25.1593 32.0878 23.6066 32.2567 22.9648Z" fill="url(#paint5_linear_0_29)"/>
<path id="Vector_40" d="M10.3016 17.8962C10.4099 18.4732 10.3436 19.4716 10.3858 20.1073C10.4045 20.388 10.4995 21.4004 10.4693 21.5942C10.3125 21.5282 10.2662 21.387 10.1164 21.2914L10.0627 21.3121C9.95699 21.6218 10.0171 21.6643 9.97109 21.9235C9.87156 21.2986 9.87828 18.5664 9.92328 17.8931C10.0915 17.9154 10.136 17.9236 10.3016 17.8962Z" fill="var(--fill-0, #CB9875)"/>
<path id="Vector_41" d="M16.6313 17.4635C16.5918 16.8269 16.9382 16.1753 17.6463 16.4944C18.1244 16.7633 18.0439 17.1334 18.0529 17.6318C17.9066 17.7325 17.9672 17.7065 17.7936 17.7245L17.7366 18.185L17.6943 18.1991C17.7025 17.5959 17.2266 17.3055 16.9106 17.8166C16.7429 17.7295 16.7056 17.6273 16.6313 17.4635Z" fill="var(--fill-0, #C56122)"/>
<path id="Vector_42" d="M17.6463 16.4944C18.1244 16.7633 18.0439 17.1334 18.0529 17.6318C17.9066 17.7325 17.9672 17.7065 17.7936 17.7245C17.8342 17.1608 17.8644 17.0118 17.6463 16.4944Z" fill="var(--fill-0, #E9CCC2)"/>
<path id="Vector_43" d="M24.1814 22.1123C24.6234 21.4579 25.0868 21.4268 25.5095 22.1363C25.4948 22.3315 25.5077 22.7977 25.4604 22.9248C25.3752 22.9748 25.3576 22.9714 25.2567 22.9834L25.2204 23.0748C25.0764 22.413 24.406 22.5589 24.3683 23.336C24.3338 23.4879 24.321 23.5522 24.3112 23.707L24.2766 23.7135L24.1644 23.5352C24.1813 23.0611 24.187 22.5867 24.1814 22.1123Z" fill="var(--fill-0, #A5744F)"/>
<path id="Vector_44" d="M16.6313 17.4635C16.7056 17.6273 16.7429 17.7295 16.9106 17.8166C16.8614 18.4079 16.874 19.0963 16.8723 19.6968C16.8677 20.4745 16.8677 21.2521 16.8723 22.0298C16.722 22.1987 16.6114 22.3747 16.5755 22.6023C16.5453 21.7573 16.5754 20.7955 16.5673 19.9417C16.5609 19.2561 16.5322 18.1084 16.6313 17.4635Z" fill="var(--fill-0, #CB9875)"/>
<path id="Vector_45" d="M19.4498 12.0596C19.4398 11.5971 19.3996 11.0638 20.067 11.2644L20.3514 11.3307C20.6053 11.5579 20.5082 11.982 20.5082 12.2991C20.4496 12.5696 20.4454 12.7446 20.432 13.0202C20.3877 12.9448 20.3995 12.9676 20.3065 12.9222C20.3103 12.8632 20.2961 12.8389 20.2757 12.7843L20.2449 12.7873C20.1288 12.5855 20.1142 12.4973 20.0448 12.2739C19.9223 12.4188 19.9379 12.3638 19.9017 12.5395L19.8671 12.3822C19.7812 12.3185 19.7817 12.3421 19.651 12.3557L19.5519 12.3531C19.4493 12.2461 19.4779 12.2364 19.4498 12.0596Z" fill="var(--fill-0, #E5A07C)"/>
<path id="Vector_46" d="M19.4498 12.0596C19.4398 11.5971 19.3996 11.0638 20.067 11.2644C20.0071 11.4286 20.0166 12.0921 20.0448 12.2739C19.9223 12.4188 19.9379 12.3638 19.9017 12.5395L19.8671 12.3822C19.7812 12.3185 19.7817 12.3421 19.651 12.3557L19.5519 12.3531C19.4493 12.2461 19.4779 12.2364 19.4498 12.0596Z" fill="var(--fill-0, #E0460E)"/>
<path id="Vector_47" d="M13.4334 21.641C13.553 21.4718 13.5172 21.6366 13.6734 21.5862C14.1468 21.7376 14.1252 22.1133 14.1286 22.555C14.1325 23.0668 14.1076 23.5909 14.0614 24.1005C13.9807 23.9239 14.1556 23.8717 13.9043 23.458L13.8927 23.486L13.8527 23.4121C13.9484 22.7278 13.6474 23.1807 13.333 22.6689C13.2581 22.506 13.2073 22.3309 13.1529 22.1597C13.1973 22.0041 13.2289 21.8554 13.2631 21.6977L13.4334 21.641Z" fill="var(--fill-0, #A5744F)"/>
<path id="Vector_48" d="M13.2631 21.6977L13.4334 21.641C13.4216 21.9614 13.4155 22.3591 13.333 22.6689C13.2581 22.506 13.2073 22.3309 13.1529 22.1597C13.1973 22.0041 13.2289 21.8554 13.2631 21.6977Z" fill="var(--fill-0, #C7B7A9)"/>
<path id="Vector_49" d="M23.2637 26.9367C23.3265 26.7067 23.285 25.9612 23.3684 25.8648C23.4181 25.9888 23.3592 25.9695 23.4223 26.0829C23.4315 26.4013 23.3974 26.6709 23.592 26.9178C23.7911 27.0056 24.0108 26.9123 24.1604 26.765L24.2215 26.8633C24.272 26.8659 24.3224 26.8714 24.372 26.863C24.3734 27.0616 24.3821 27.3234 24.3736 27.5164C24.0431 28.1225 23.6733 28.2299 23.2664 27.6043C23.2554 27.3588 23.2473 27.1829 23.2637 26.9367Z" fill="var(--fill-0, #8B877D)"/>
<path id="Vector_50" d="M29.4345 11.296C29.5287 11.304 29.5395 11.3069 29.6118 11.3676C29.7784 11.7356 29.5967 11.9204 29.6257 12.2821L29.6768 12.3059C29.8284 12.2357 30.0205 12.0389 29.9806 11.8604C29.8411 11.8082 29.7757 11.73 29.7426 11.5905L29.7897 11.5176C30.0379 11.3503 30.3925 11.3968 30.7171 11.365C30.84 12.315 30.8456 12.4357 29.9512 12.4355C29.7691 12.4354 29.7076 12.5536 29.4949 12.4421C29.3457 12.2005 29.3833 11.5662 29.4345 11.296Z" fill="var(--fill-0, #E0460E)"/>
<path id="Vector_51" d="M37.3033 11.793C37.2865 11.5332 37.3018 11.3109 37.5599 11.1972C38.0623 11.2111 38.1896 12.0013 37.8666 12.2977C37.8549 12.3084 37.6495 12.3708 37.5633 12.435L37.4859 12.4932C37.2662 12.3395 37.3691 12.1539 37.3033 11.793Z" fill="var(--fill-0, #E0460E)"/>
<path id="Vector_52" d="M24.1644 23.5352L24.2766 23.7135L24.3112 23.707C24.321 23.5522 24.3338 23.4878 24.3683 23.336C24.3762 24.3916 24.3205 25.8656 24.372 26.863C24.3224 26.8714 24.272 26.8659 24.2215 26.8633L24.1604 26.765C24.1314 25.7283 24.1459 24.573 24.1644 23.5352Z" fill="var(--fill-0, #544B3F)"/>
<path id="Vector_53" d="M23.4029 22.1297C23.4931 22.6513 23.4143 23.9864 23.4151 24.5675C23.4157 24.9547 23.438 25.7149 23.4223 26.0829C23.3592 25.9695 23.4181 25.9888 23.3684 25.8648C23.285 25.9612 23.3265 26.7067 23.2637 26.9367C23.2252 26.1634 23.1309 24.0712 23.2329 23.3294C23.2913 23.3602 23.2986 23.3856 23.3315 23.4429L23.343 23.4634L23.3884 23.4686C23.3869 23.037 23.3745 22.5568 23.4029 22.1297Z" fill="var(--fill-0, #716954)"/>
<path id="Vector_54" d="M22.0612 11.2812C22.1931 11.2894 22.373 11.3061 22.4584 11.4051C22.4863 11.5746 22.5361 12.3431 22.4573 12.4646L21.9991 12.5035C21.9443 12.1112 21.8684 11.6323 22.0612 11.2812Z" fill="var(--fill-0, #E5A07C)"/>
<path id="Vector_55" d="M33.8633 11.3818C33.9675 11.3352 34.0018 11.3111 34.1168 11.3353C34.3226 11.5073 34.3489 12.4502 33.9182 12.4482C33.835 12.4479 33.6148 12.455 33.5495 12.4223C33.6438 12.3689 33.7181 12.2916 33.793 12.2148C33.9796 12.149 33.8981 11.5391 33.8633 11.3818Z" fill="var(--fill-0, #C56122)"/>
<path id="Vector_56" d="M16.5052 11.2663C16.572 11.2786 16.6146 11.2991 16.6766 11.3245C16.8149 11.5047 16.8488 12.3189 16.7074 12.5082C16.6126 12.482 16.463 12.4468 16.4376 12.34C16.3689 12.0525 16.3922 11.5305 16.5052 11.2663Z" fill="var(--fill-0, #E0460E)"/>
<path id="Vector_57" d="M9.63734 11.3053C9.71629 11.3371 9.79125 11.3495 9.81355 11.4455C9.86766 11.6782 9.9002 12.3382 9.81875 12.5266L9.73332 12.4991C9.55121 12.3456 9.50137 11.5068 9.63734 11.3053Z" fill="var(--fill-0, #E0460E)"/>
<path id="Vector_58" d="M31.5079 11.2991C31.6462 11.323 31.6025 11.2973 31.6901 11.3836C31.7429 11.5937 31.8219 12.3272 31.736 12.5254C31.6391 12.5127 31.6289 12.5079 31.5576 12.441C31.4223 12.2052 31.4919 11.5945 31.5079 11.2991Z" fill="var(--fill-0, #E0460E)"/>
<path id="Vector_59" d="M12.0637 11.2968L12.1584 11.333C12.1718 11.3513 12.2024 11.3898 12.2016 11.4137C12.1881 11.7818 12.3023 12.3174 12.0647 12.6113C11.9466 12.5162 11.8875 12.4831 11.9094 12.3205C11.9527 11.9984 11.9573 11.6028 12.0637 11.2968Z" fill="var(--fill-0, #C56122)"/>
<path id="Vector_60" d="M7.68535 11.2671C7.72215 11.2781 7.83004 11.3043 7.84469 11.3247C7.94465 11.464 7.92687 12.3165 7.90855 12.4907C7.81375 12.5121 7.85125 12.5105 7.7543 12.48C7.63406 12.2934 7.64684 11.4917 7.68535 11.2671Z" fill="var(--fill-0, #C56122)"/>
<path id="Vector_61" d="M16.479 30.1325C16.7246 30.1017 17.8404 30.0963 18.0956 30.1424L17.8611 30.2534C17.7441 30.3065 16.5989 30.3032 16.428 30.2627L16.3948 30.208L16.479 30.1325Z" fill="var(--fill-0, #000100)" fill-opacity="0.717647"/>
<path id="Vector_62" d="M27.0743 11.3409C27.3948 11.5142 27.0385 11.795 27.2879 11.9422L27.4037 11.8623L27.462 11.8733C27.5126 11.9652 27.5065 12.2891 27.5104 12.414C27.4804 12.4324 27.4391 12.4405 27.4037 12.4505C27.3512 12.427 27.3176 12.4035 27.2927 12.3532C27.0765 11.9175 26.963 11.8173 27.0743 11.3409Z" fill="var(--fill-0, #000100)"/>
<path id="Vector_63" d="M33.5495 12.4223C33.5025 12.1963 33.3991 11.4137 33.6434 11.3133L33.7898 11.3745C33.7473 11.5815 33.71 12.0224 33.793 12.2148C33.7181 12.2916 33.6438 12.3689 33.5495 12.4223Z" fill="var(--fill-0, #B04F11)"/>
<path id="Vector_64" d="M17.7738 20.0011L17.895 19.812L17.9455 19.8101C17.9851 19.8788 18.0228 19.9356 18.0459 20.0118C18.0109 20.3504 17.9904 20.5862 18.0321 20.9287C17.9924 20.8946 17.9481 20.8608 17.9069 20.8281L17.7978 20.8845L17.7779 20.8531C17.7995 20.6966 17.7778 20.1842 17.7738 20.0011Z" fill="url(#paint6_linear_0_29)"/>
<path id="Vector_65" d="M35.3785 11.2604C35.7417 11.3499 35.6785 12.3216 35.5253 12.5637L35.4773 12.5467C35.3914 12.4111 35.465 11.8825 35.4175 11.6902C35.3861 11.5625 35.367 11.392 35.3785 11.2604Z" fill="var(--fill-0, #C56122)"/>
<path id="Vector_66" d="M18.0793 11.2602L18.1682 11.3237C18.2512 11.5304 18.2633 12.3414 18.1058 12.511C17.891 12.4492 18.0252 11.4561 18.0793 11.2602Z" fill="var(--fill-0, #B04F11)"/>
<path id="Vector_67" d="M18.5217 11.2341C18.5428 11.2466 18.5998 11.2948 18.6037 11.319C18.6606 11.6786 18.6396 12.0487 18.7531 12.4025C18.7531 12.4025 18.7036 12.5247 18.6994 12.535C18.4748 12.2413 18.3201 11.5693 18.5217 11.2341Z" fill="var(--fill-0, #000100)"/>
<path id="Vector_68" d="M13.3933 30.0539C13.6182 30.0208 14.3773 30.0055 14.542 30.1453C14.358 30.1763 13.6091 30.168 13.4382 30.1282L13.3933 30.0539Z" fill="var(--fill-0, #000100)" fill-opacity="0.901961"/>
<path id="Vector_69" d="M17.7978 20.8845L17.9069 20.8281C17.9481 20.8608 17.9924 20.8946 18.0321 20.9287C18.0453 21.1601 17.9977 21.3015 17.9411 21.5229C17.8025 21.2861 17.8023 21.159 17.7978 20.8845Z" fill="var(--fill-0, #E9CCC2)" fill-opacity="0.988235"/>
<path id="Vector_70" d="M33.7898 11.3745L33.8633 11.3818C33.8981 11.5391 33.9796 12.149 33.793 12.2148C33.71 12.0224 33.7473 11.5815 33.7898 11.3745Z" fill="var(--fill-0, #F06A3D)" fill-opacity="0.0235294"/>
</g>
<defs>
<linearGradient id="paint0_linear_0_29" x1="5.63313" y1="22.9771" x2="4.53543" y2="15.0953" gradientUnits="userSpaceOnUse">
<stop stop-color="#9C6D49"/>
<stop offset="1" stop-color="#E6A56E"/>
</linearGradient>
<linearGradient id="paint1_linear_0_29" x1="34.3988" y1="23.5225" x2="32.6352" y2="27.7515" gradientUnits="userSpaceOnUse">
<stop stop-color="#625F59"/>
<stop offset="1" stop-color="#8F8C84"/>
</linearGradient>
<linearGradient id="paint2_linear_0_29" x1="31.1205" y1="18.1691" x2="30.8938" y2="22.9276" gradientUnits="userSpaceOnUse">
<stop stop-color="#C67746"/>
<stop offset="1" stop-color="#A07453"/>
</linearGradient>
<linearGradient id="paint3_linear_0_29" x1="13.7098" y1="16.9283" x2="13.1667" y2="16.905" gradientUnits="userSpaceOnUse">
<stop stop-color="#C8986B"/>
<stop offset="1" stop-color="#BD7D5B"/>
</linearGradient>
<linearGradient id="paint4_linear_0_29" x1="17.8427" y1="18.7112" x2="17.9748" y2="18.71" gradientUnits="userSpaceOnUse">
<stop stop-color="#F2BDB9"/>
<stop offset="1" stop-color="#ECC3AE"/>
</linearGradient>
<linearGradient id="paint5_linear_0_29" x1="32.9887" y1="25.0402" x2="31.9248" y2="24.8017" gradientUnits="userSpaceOnUse">
<stop stop-color="#C4B7AF"/>
<stop offset="1" stop-color="#EDEBED"/>
</linearGradient>
<linearGradient id="paint6_linear_0_29" x1="17.9602" y1="20.3123" x2="17.7673" y2="20.278" gradientUnits="userSpaceOnUse">
<stop stop-color="#ECC3B5" stop-opacity="0.988235"/>
<stop offset="1" stop-color="#F0BABD"/>
</linearGradient>
</defs>
</svg>
