<svg preserveAspectRatio="none" width="100%" height="100%" overflow="visible" style="display: block;" viewBox="0 0 71.91 71.91" fill="none" xmlns="http://www.w3.org/2000/svg">
<g id="image">
<path id="Vector" d="M36.7736 4.76794C37.0945 4.44197 37.5245 4.41461 37.9861 4.42441C39.0089 4.44689 40.0563 4.37717 41.0673 4.54164C41.5867 4.62612 42.2022 4.95671 42.688 5.01869C44.2942 5.22362 45.9091 5.79068 47.4178 6.36469C47.5958 6.43242 47.9127 6.42446 48.1011 6.50644C51.3265 7.82288 54.4158 9.53503 57.02 11.8713C57.7349 12.5126 58.5269 13.0342 59.1944 13.7308C63.8866 18.662 67.4651 25.0785 68.0503 31.947C68.1688 33.3381 68.6967 34.871 68.5582 36.3502C68.6301 37.6914 68.2683 38.9755 68.0667 40.283C67.957 40.9949 67.9733 41.7704 67.8429 42.4669C65.7243 53.7859 56.5849 63.5222 45.6115 66.8167C45.2001 66.9273 44.768 66.9279 44.3481 67.0092C44.097 67.0578 43.4752 67.4771 43.2893 67.4809C41.7946 67.5112 40.3744 67.7945 38.9516 68.0255C37.1035 68.3255 34.7483 67.996 32.9367 67.725C32.2133 67.6264 31.4782 67.5931 30.7568 67.4821C30.2304 67.3997 29.6946 67.1577 29.1792 67.0545C25.8975 66.3973 22.725 64.788 19.801 63.1971C19.0486 62.7877 18.8716 62.6641 18.7896 61.8021C16.2838 60.8642 11.7166 55.5731 10.1609 53.2309C8.07688 50.0934 6.16024 45.1782 5.56975 41.4314C5.27834 39.5823 5.43194 36.7794 5.44645 34.8711C5.46053 33.0201 5.47135 30.9866 6.10378 29.245C6.24137 28.8731 6.16926 27.9443 6.33064 27.5197C6.61516 26.771 6.84336 26.2219 6.99666 25.4253C7.63461 24.7616 7.54753 24.0882 7.92119 23.3206C8.80743 21.5 9.71115 19.6585 10.9354 18.0376C11.2615 17.6452 11.5735 16.9411 11.9219 16.5904C14.0014 14.497 15.9675 12.099 18.4554 10.4838C18.9646 10.1532 19.445 9.67709 19.9594 9.36754C21.5729 8.39634 23.2965 7.5594 25.0271 6.81987C25.8528 6.47435 26.8445 6.3337 27.6663 5.84878C27.8462 5.74265 28.7082 5.80943 28.9615 5.73026C30.0897 5.37758 31.041 5.05256 32.2414 5.05378C32.4104 5.05332 33.2453 4.76381 33.4733 4.69739C34.1889 4.48901 34.8792 4.46384 35.6223 4.449C36.0813 4.4501 36.4615 4.44537 36.7736 4.76794ZM20.3251 59.9694C21.1266 60.3614 21.9696 60.7779 22.7193 61.2618C23.2411 61.6366 23.8494 61.8687 24.3809 62.2411C24.6768 62.3599 24.9769 62.4728 25.2687 62.6011C25.9189 62.9936 26.9787 63.4648 27.7267 63.5625C28.0284 63.6775 28.2985 63.8066 28.5752 63.9731C30.5783 64.3703 32.516 64.8742 34.5743 64.9232C36.062 64.9235 37.5839 65.0242 39.0647 64.8647C40.011 64.7071 40.9692 64.6472 41.9248 64.5719C42.3315 64.4648 42.7259 64.3034 43.1201 64.1577C43.526 63.9702 44.0256 64.0518 44.4478 63.9075C46.0055 63.3754 47.5779 62.7332 49.0785 62.0546C50.0712 61.6057 51.1286 61.0297 52.0504 60.4492C52.543 60.139 53.0432 59.6438 53.581 59.4371C53.9159 59.1671 54.3318 58.9507 54.6998 58.7246C54.8938 58.3615 58.0769 55.4182 58.6503 54.7898C59.2837 54.0954 59.6849 53.3061 60.2034 52.5354C60.7627 51.7042 61.3393 50.9654 61.8218 50.0791C62.2392 49.4403 62.4614 48.6555 62.9689 47.9152C63.5592 46.4286 64.0332 44.902 64.4919 43.3697C64.6436 42.8629 64.8607 42.3281 64.9498 41.8077C65.1127 40.8573 64.9356 39.9042 65.1543 38.9302C65.5641 38.0339 65.5849 37.2329 65.5717 36.2601C65.477 35.3699 65.459 34.2991 65.1708 33.4579C65.0308 32.9004 65.0237 32.3258 65.0049 31.7547C64.9634 30.9406 64.8399 30.0528 64.5356 29.2937C64.4327 29.0153 64.3949 28.7252 64.3217 28.4436C63.5462 25.4586 62.0457 22.7277 60.3932 20.1433C59.947 19.4453 59.1812 18.6741 58.6573 17.9933C58.0551 17.3186 57.4054 16.2216 56.6937 15.6862C55.4697 14.7656 54.1279 13.4909 52.9263 12.6075C51.0827 11.2523 48.7729 10.2666 46.7213 9.299C45.9344 8.92787 44.6709 8.81494 43.8428 8.50589L43.7987 8.48903C43.4537 8.38236 43.1074 8.28018 42.7598 8.18257C41.7381 8.11775 40.9338 7.90589 39.939 7.79304C39.3637 7.71186 37.1427 7.57478 36.4749 7.55771C35.8892 7.60554 35.3056 7.59107 34.7186 7.60125C33.5939 7.62091 32.3635 7.78728 31.2538 7.98011C24.7649 9.17449 18.898 12.6006 14.6692 17.6652C12.3432 20.4118 10.3657 23.5471 9.37674 27.0342C9.08861 28.0503 8.67112 29.0727 8.39711 30.0912C8.24051 30.6734 8.24416 31.3839 8.10434 31.9781C7.38292 34.7772 7.6266 37.7737 8.15216 40.5839C8.2693 41.2102 8.26635 41.8792 8.47569 42.4833C8.65617 42.993 8.88278 43.5213 8.99584 44.0492C9.49991 45.3834 9.97056 46.7651 10.5533 48.0655C12.2845 51.9283 14.7713 55.112 17.798 58.0391C18.5627 58.7786 19.5821 59.2199 20.3251 59.9694Z" fill="var(--fill-0, #E64502)"/>
<path id="Vector_2" d="M40.0091 27.3623C40.7216 27.3052 41.4551 27.2665 42.1689 27.3118C43.5958 27.4022 44.2141 27.9824 45.127 28.9712C45.3091 29.1684 45.5414 29.3435 45.7041 29.5552C45.9854 29.9207 45.8003 31.3297 45.7556 31.8059C45.0139 32.6753 44.7766 32.6834 44.2003 33.7767L44.9962 34.0967C45.2382 34.4797 45.4423 34.6439 45.8276 34.8694C45.7844 35.8307 45.8079 36.7947 45.7702 37.7571C45.5093 38.1428 45.22 38.4838 44.8788 38.8014C44.3324 39.31 43.2506 40.1216 42.5042 40.0959C41.7875 40.0928 40.8725 40.1944 40.1799 40.0235C39.8989 39.9541 39.8398 39.8033 39.6959 39.5737C39.4267 39.3969 39.0369 39.3999 38.7228 39.3664C37.9496 38.5957 37.0504 37.893 37.0315 36.7004C37.0114 35.4278 37.9832 34.8113 38.7584 33.9802C38.8753 33.8549 38.9903 33.719 38.9827 33.5382C38.5993 33.1755 38.2255 32.8067 37.8202 32.4678C37.7437 31.9375 37.7162 31.6738 37.3584 31.2563C36.9195 30.7439 37.5486 30.0942 37.7216 29.5823C37.7933 29.3699 37.7975 29.0913 37.8194 28.8672C38.1429 28.6217 38.4367 28.3376 38.7357 28.0634C39.3685 27.9479 39.5673 27.8016 40.0091 27.3623ZM38.3523 36.4718C38.602 36.587 38.9818 36.712 39.0805 36.9873C39.1626 37.2164 39.1966 37.5869 39.378 37.7525C39.6739 37.8608 40.3138 37.986 40.4509 38.2817C40.4921 38.3706 40.5255 38.4642 40.5594 38.556C40.9157 38.7861 41.574 38.7367 41.9904 38.7476C42.1829 38.6857 42.3331 38.6759 42.4435 38.4889C42.5603 38.2912 42.5829 38.1422 42.8419 38.0648C43.0563 38.0006 43.3719 38.032 43.5985 38.0318C43.8082 37.7006 44.0244 37.519 44.285 37.2355C44.664 36.8231 44.5277 36.0315 44.5112 35.5105C43.3418 34.9593 42.3112 34.1195 40.9318 34.3123C39.4709 34.9834 39.4297 35.4509 38.3523 36.4718ZM39.0516 31.9075L39.0861 31.916C39.5889 32.0452 39.8252 32.5389 40.2616 32.6155C40.8702 32.7223 41.5355 32.6538 42.1523 32.6347C42.389 32.6165 42.6273 32.6032 42.8634 32.579C43.3088 32.0757 43.8352 31.666 44.0725 31.0202L43.8849 29.8358C43.1435 29.4065 41.9428 28.8348 41.0723 28.9555C40.3595 29.3727 39.3725 29.8486 39.1342 30.711C39.0362 31.0653 39.0652 31.5345 39.0516 31.9075Z" fill="var(--fill-0, black)"/>
<path id="Vector_3" d="M53.6346 27.3236C53.714 27.3229 53.7931 27.3262 53.8725 27.3291C54.064 27.3362 54.2564 27.3332 54.3913 27.4916C54.7805 27.9486 54.5618 28.8577 54.5055 29.4035C53.3617 29.5233 52.6014 29.8287 51.6871 30.5169C51.1866 30.8936 50.1853 31.7548 50.0973 32.3879C50.2 32.4898 50.2636 32.4773 50.4029 32.4542C50.7149 32.4025 51.0333 32.2726 51.3395 32.1879C52.1221 31.9717 52.933 31.967 53.7261 32.129C54.0513 32.7433 54.7908 32.7747 55.2767 33.2387C55.4338 33.3886 55.6092 33.5226 55.7767 33.6608C55.8359 33.9501 55.8803 34.2718 55.9832 34.5473C56.1632 35.0293 56.578 35.4914 56.5673 36.0296C56.5445 37.1717 55.1284 38.5709 54.348 39.311C53.9929 39.5889 53.5616 39.7367 53.2032 40.0309C53.0814 40.0486 52.9588 40.0622 52.836 40.0714C52.212 40.1147 50.7546 40.211 50.214 39.9787C50.081 39.9215 49.9534 39.7206 49.7961 39.6442C49.3789 39.442 48.9715 39.2756 48.6204 38.9612C47.8388 38.2612 47.2175 37.078 47.1711 36.033C47.1085 34.622 47.2359 33.9838 47.7282 32.6896C47.8351 32.4085 47.8309 32.0936 47.9427 31.8193C48.4843 30.4906 49.9483 29.6837 50.8764 28.6722C51.0388 28.6629 51.2096 28.6587 51.3699 28.6301C51.7354 28.565 51.9072 28.2556 52.1003 27.972C52.293 27.9753 52.4909 27.9894 52.6829 27.9721C53.1296 27.9321 53.3688 27.6528 53.6346 27.3236ZM49.171 37.2712C49.7371 37.5801 50.3819 38.134 50.7204 38.6855C51.1967 38.7291 51.664 38.7557 52.1424 38.7543C52.4987 38.5728 52.5504 38.5352 52.6826 38.1391L52.8269 38.0577C53.0039 38.1164 53.0719 38.1653 53.2484 38.0759C53.6142 37.8904 54.0673 37.2681 54.2857 36.9197L54.2805 36.8652C54.2376 36.3909 54.4696 35.3494 54.3298 34.9767C54.3058 34.9129 54.1723 34.7973 54.1187 34.7506C53.7032 34.3881 53.1635 34.1973 52.7565 33.8641C52.677 33.799 52.6667 33.5995 52.5647 33.5546C52.3106 33.4428 51.8748 33.4169 51.6009 33.4381C51.4427 33.5577 51.2737 33.7339 51.1045 33.825C50.2562 34.2819 49.3298 34.3891 49.1646 35.5235C49.0836 36.0794 49.1533 36.7086 49.171 37.2712Z" fill="var(--fill-0, black)"/>
<path id="Vector_4" d="M30.6686 27.2786C32.5798 27.2027 32.5693 27.348 34.2543 27.9739C34.6728 28.701 35.6615 29.1179 35.7327 30.0071C35.8176 31.0689 35.952 34.1423 35.654 35.0533C35.5872 35.2575 35.3076 35.24 35.2153 35.5084C35.1205 35.7837 35.0686 36.3559 34.8796 36.559C34.3183 37.1622 33.5605 38.1037 32.8844 38.5497C32.316 38.9245 31.5364 39.2438 30.8843 39.444C30.6087 39.5287 30.2261 39.5806 29.978 39.7109C29.8512 39.7775 29.7346 39.9107 29.6363 40.0142C29.3866 40.0381 29.0357 40.1072 28.7947 40.0398C28.578 39.9793 28.4158 39.8342 28.3125 39.6392C28.2614 39.5429 28.2687 39.3889 28.3031 39.2874C28.4341 38.9011 28.6809 38.7268 29.0307 38.5452C29.0594 38.4155 29.0995 38.2953 29.146 38.171C29.3761 37.9638 29.8028 38.0849 30.0928 38.0081C30.9817 37.7726 32.0927 36.7976 32.6799 36.1081C32.8792 35.8741 33.016 35.5999 33.2062 35.362C33.3619 35.1673 33.5561 35.0462 33.692 34.8289L33.6575 34.7154C33.1348 34.625 32.569 35.2223 32.091 35.3594C31.6605 35.4829 30.4648 35.4171 29.9799 35.3349C28.8011 35.1351 28.1094 34.2501 27.4681 33.3323C27.3178 33.2712 27.1974 33.2325 27.0941 33.1001C27.0068 32.2689 26.8735 30.9555 27.1534 30.1668C27.2257 29.9631 27.411 29.8228 27.517 29.6379C27.6401 29.4228 27.6815 29.1088 27.7335 28.8664C28.4268 28.1752 29.6689 27.3141 30.6686 27.2786ZM32.1914 33.9733C33.036 33.2033 34.3403 32.8988 34.3936 31.5787C34.4091 31.1919 34.4 30.6959 34.2174 30.3517L33.9591 30.3997C33.8143 30.2988 33.7983 30.2472 33.7687 30.0662C33.7331 29.8484 33.7636 29.6612 33.5914 29.4933C33.1765 29.2828 32.2365 29.1771 31.7687 29.225C31.8587 29.1949 31.9416 29.1543 32.0268 29.1131L32.0459 28.9872C31.9527 28.9179 31.8652 28.8802 31.7506 28.8641C31.5088 28.8304 31.2234 28.8589 31.0253 29.0106L31.0201 29.2503C30.2089 29.2797 29.7188 29.6162 29.1803 30.1981C28.8306 30.576 28.4738 31.0611 28.4881 31.6013C28.5035 32.1845 29.0868 31.8941 28.9954 33.255C29.319 33.3095 30.0859 33.3351 30.3099 33.5257C30.3497 33.6627 30.3667 33.8798 30.5053 33.9413C30.8842 34.1095 31.7731 34.0126 32.1914 33.9733Z" fill="var(--fill-0, black)"/>
<path id="Vector_5" d="M31.0201 29.2503L31.0253 29.0106C31.2234 28.8589 31.5088 28.8304 31.7506 28.8641C31.8652 28.8802 31.9527 28.9179 32.0459 28.9872L32.0268 29.1131C31.9416 29.1543 31.8587 29.1949 31.7687 29.225C31.5245 29.2528 31.2664 29.2439 31.0201 29.2503Z" fill="var(--fill-0, black)" fill-opacity="0.854902"/>
<path id="Vector_6" d="M20.3638 27.3487C20.9741 27.2877 22.8387 27.1762 23.3477 27.4299C23.8139 27.6622 24.5802 28.5099 24.9224 28.912C25.1079 29.1301 25.2589 29.3651 25.5498 29.4445C25.5682 29.4496 25.5869 29.4536 25.6054 29.4581C25.8762 29.9931 25.7094 31.1929 25.6986 31.8014C25.3107 32.0516 24.7162 32.6862 24.5351 33.1027C24.433 33.3374 24.4145 33.583 24.5182 33.8205C24.6906 34.2154 25.279 34.645 25.6707 34.7991C25.6856 35.9327 25.8795 37.3415 25.3815 38.3806C25.2374 38.6813 24.9868 38.9464 24.8178 39.2429C24.4698 39.3388 23.853 39.4646 23.5722 39.6813C23.5154 39.7251 23.4282 39.9051 23.3684 39.9741C22.4905 40.2079 21.2776 40.2107 20.4163 39.9127C19.7538 39.6834 19.213 39.4004 18.5076 39.2938L18.479 39.2627C18.2036 38.9677 17.965 38.7286 17.6227 38.5071L17.7334 37.4811C17.9934 37.4594 18.4086 37.3728 18.6555 37.4343C18.6745 37.4391 18.6934 37.4445 18.7121 37.4503C18.8932 37.5061 19.0252 37.7868 19.2083 37.8972C19.5057 38.0765 19.9195 38.0241 20.188 38.2365C20.2131 38.32 20.2354 38.4099 20.2821 38.4841C20.3608 38.6089 20.4557 38.5924 20.5918 38.6184C21.3151 38.7486 21.9302 38.7485 22.6596 38.6623C23.047 38.1329 23.6691 37.8117 24.1381 37.3574C24.3538 37.1484 24.4498 36.7217 24.4519 36.4285C24.4557 35.8858 24.2028 35.495 23.8375 35.1181C22.6297 33.8725 21.258 34.0304 19.6546 34.0028C19.6342 33.5688 19.6529 33.1272 19.6571 32.6925C20.717 32.6329 21.7905 32.6641 22.8522 32.6639C23.0582 32.2897 23.2445 32.0905 23.5985 31.8415C23.8394 30.9813 23.6953 30.2471 23.6146 29.3695C22.8518 29.3615 22.291 29.0658 21.5628 28.9306C20.5495 28.7424 20.6262 29.2749 19.8793 29.4548C19.6616 29.5072 19.4015 29.3422 19.2206 29.4683C19.1835 29.6516 19.167 29.8007 19.0352 29.9432C18.8487 30.0142 18.5507 29.9826 18.3709 29.8908C18.2307 29.8191 18.1524 29.6035 18.046 29.4877C17.9401 29.3724 17.7568 29.2764 17.6667 29.1589C17.6431 29.128 17.6257 29.0224 17.6132 28.9807C17.7815 28.5328 19.8491 27.6219 20.3638 27.3487Z" fill="var(--fill-0, black)" fill-opacity="0.988235"/>
<path id="Vector_7" d="M34.3986 50.2764C34.3554 50.0041 34.2621 49.676 34.3702 49.4137C34.6976 49.0983 35.1478 48.7544 35.5752 48.5963C35.7874 48.6628 36.0796 49.202 36.1586 49.1474C36.3912 48.9864 36.3105 48.6976 36.7234 48.723C37.0162 48.741 37.3196 48.9815 37.5559 49.1403C37.7155 49.4966 37.8796 49.8334 37.74 50.2275C37.7276 50.2627 37.7198 50.2701 37.7004 50.2968C37.7347 50.6429 37.8426 51.1104 37.5971 51.3977C37.5178 51.4906 37.4002 51.5507 37.294 51.6078C37.1428 51.7744 37.0553 52.0817 36.8726 52.1846C36.5278 52.2952 35.5631 52.3235 35.262 52.1533C35.0789 52.0498 35.0589 51.8095 35.0011 51.6222C34.848 51.4843 34.62 51.4054 34.4441 51.2833C34.3278 51.1039 34.36 50.9388 34.3788 50.7376L34.3986 50.2764ZM35.1516 51.0341C35.291 51.2688 35.4189 51.356 35.6861 51.4286C36.1747 51.5614 36.6424 51.4124 37.1251 51.448L37.1754 51.1555C37.1084 50.9871 37.102 50.9869 36.9404 50.9032C36.5118 50.8433 36.0624 50.8797 35.6455 50.7607C35.4238 50.8138 35.3125 50.8722 35.1516 51.0341ZM35.7304 50.1974C35.8265 50.1501 35.8807 50.119 35.9307 50.0211C35.9778 49.9289 36.0235 49.8908 36.1092 49.8353C36.168 49.885 36.2279 49.9375 36.2926 49.9793C36.4138 50.0579 36.5462 50.1298 36.6936 50.0751C36.8581 50.014 36.928 49.9118 37.0075 49.7665C36.9605 49.6605 36.9561 49.6143 36.8507 49.5555C36.5669 49.3972 36.1641 49.4106 35.8592 49.4972C35.487 49.6028 35.2754 49.7766 35.0855 50.1095C35.2994 50.1393 35.5156 50.1777 35.7304 50.1974Z" fill="var(--fill-0, black)"/>
<path id="Vector_8" d="M35.0855 50.1095C35.2994 50.1393 35.5156 50.1777 35.7304 50.1974C35.5434 50.2863 35.4549 50.3055 35.3478 50.4897C35.4321 50.6626 35.4726 50.6689 35.6455 50.7607C35.4238 50.8138 35.3125 50.8722 35.1516 51.034L35.093 50.8849C34.906 50.726 34.6134 50.7488 34.3788 50.7376L34.3986 50.2764L35.0855 50.1095Z" fill="var(--fill-0, #49484A)"/>
<path id="Vector_9" d="M35.0011 51.6222C35.5766 51.6936 36.1992 51.9182 36.7697 52.0497L36.8726 52.1846C36.5278 52.2952 35.5631 52.3235 35.262 52.1533C35.0789 52.0498 35.0589 51.8095 35.0011 51.6222Z" fill="var(--fill-0, #202021)"/>
<path id="Vector_10" d="M44.2425 48.7637C44.486 48.7388 44.7197 48.7267 44.9644 48.7345C45.109 48.8106 45.1844 48.8814 45.2789 49.0142C45.2426 49.473 44.2265 49.3315 43.9671 49.6853C43.9362 49.7275 43.9711 49.8288 43.98 49.8811C44.2328 50.1949 44.6373 50.3348 44.9952 50.4998C45.2185 51.1199 45.2108 51.545 45.1497 52.1954C44.4249 52.1599 43.6214 52.2843 42.9203 52.0998C42.8199 52.1157 42.7452 52.1032 42.6477 52.0837L42.597 51.9451C42.6258 51.8331 42.6529 51.7222 42.7145 51.6231C43.0995 51.0036 43.7935 51.5614 44.3308 51.4425C44.3602 51.3932 44.3959 51.335 44.4066 51.2781C44.5078 50.7366 43.5792 51.0409 43.31 50.6973C43.1652 50.5126 42.5977 49.8764 42.6198 49.6909C42.7923 49.5153 42.9079 49.3069 43.0702 49.1257C43.3581 48.8043 43.844 48.7881 44.2425 48.7637Z" fill="var(--fill-0, black)"/>
<path id="Vector_11" d="M39.2014 51.4128C40.0577 51.4041 40.629 51.3468 41.3711 50.9014C41.5263 50.8082 41.6592 50.7 41.8188 50.8266C41.8927 51.2934 41.6944 51.7381 41.5334 52.1668C40.7374 52.2171 39.9449 52.1585 39.1535 52.2005C39.1563 52.6779 39.2258 53.209 38.8436 53.5704C38.8001 53.6115 38.763 53.6334 38.7105 53.6615C38.5537 53.6357 38.5294 53.6047 38.4417 53.4807C38.2296 53.1813 38.3547 52.687 38.39 52.3459C38.5872 52.368 38.7488 52.3751 38.9463 52.3421C39.1904 52.1017 39.1691 51.7416 39.2014 51.4128Z" fill="var(--fill-0, black)"/>
<path id="Vector_12" d="M38.39 52.3459C38.5473 51.3373 38.1742 50.0947 38.4838 49.1502C38.5476 48.9555 38.657 48.7712 38.8531 48.6859C39.1235 48.5683 39.5695 48.6701 39.829 48.7869C39.8271 49.0033 39.8183 49.2209 39.8421 49.4362C39.5804 49.4822 39.4321 49.4782 39.2256 49.6506C38.9762 50.1904 39.1665 50.8383 39.2014 51.4128C39.1691 51.7416 39.1904 52.1017 38.9463 52.3421C38.7488 52.3751 38.5872 52.368 38.39 52.3459Z" fill="var(--fill-0, #202021)"/>
<path id="Vector_13" d="M28.2014 51.6282C27.9988 51.506 27.8375 51.3986 27.684 51.2163C27.6391 51.0484 27.6045 51.0092 27.6761 50.8458C28.0514 50.7039 28.8924 51.1958 29.307 51.3086C29.651 51.2935 30.0011 51.264 30.345 51.2838C30.6344 51.364 30.9185 51.4031 31.0851 51.678C31.1001 51.7027 31.1132 51.7284 31.1264 51.7541C31.1159 51.9162 31.099 52.0018 30.9939 52.1281C30.384 52.3976 29.1907 52.2023 28.5292 52.2015L28.2014 51.6282Z" fill="var(--fill-0, black)"/>
<path id="Vector_14" d="M28.2014 51.6282C27.9988 51.506 27.8375 51.3986 27.684 51.2163C27.6391 51.0484 27.6045 51.0092 27.6761 50.8458C28.0514 50.7039 28.8924 51.1958 29.307 51.3086C28.8795 51.3393 28.5899 51.4729 28.2014 51.6282Z" fill="var(--fill-0, #202021)"/>
<path id="Vector_15" d="M28.1436 49.1032L28.2747 48.8928C28.4613 48.7729 28.8669 48.8475 29.0997 48.8322C29.1646 49 29.1897 49.1323 29.3613 49.2253C29.5675 49.3372 29.976 49.3124 30.2144 49.3218C30.7239 49.8266 31.2221 50.1102 31.2232 50.9074C31.2233 50.9384 31.2206 50.9595 31.2179 50.9915C30.9295 50.9916 30.6432 50.9779 30.3554 50.9619C30.3623 50.7301 30.4011 50.478 30.2749 50.2725C30.0789 50.0989 29.5033 50.1317 29.2396 50.097C28.8928 49.7775 28.3854 49.5078 28.1436 49.1032Z" fill="var(--fill-0, black)"/>
<path id="Vector_16" d="M32.4195 49.7732C32.5422 49.6133 32.5745 49.6001 32.7651 49.5299C32.9019 49.5638 32.9757 49.5738 33.0338 49.7204C33.04 49.7361 33.0414 49.7533 33.0452 49.7697C33.0705 50.1303 33.0394 50.8176 33.1895 51.1395C33.2997 51.3758 33.732 51.4833 33.837 51.8142C33.8663 51.9067 33.8476 51.9139 33.8015 51.9974C33.4018 52.2484 32.869 52.16 32.4192 52.1386C32.3859 51.3578 32.3543 50.5523 32.4195 49.7732Z" fill="var(--fill-0, black)"/>
<path id="Vector_17" d="M40.4894 48.779C40.7492 48.6886 40.9318 48.6963 41.202 48.7365C41.3568 48.769 41.6042 48.7992 41.7024 48.9343C41.8556 49.1449 41.9016 49.498 41.8407 49.7466C41.8047 49.8939 41.7348 49.9924 41.6282 50.0989C41.4908 50.1348 41.4435 50.1622 41.3103 50.0913C41.1552 50.0087 41.0402 49.7791 40.97 49.6268L40.4607 49.4486L39.8421 49.4362C39.8183 49.2209 39.8271 49.0033 39.829 48.7869C40.049 48.7928 40.2705 48.8067 40.4894 48.779Z" fill="var(--fill-0, #202021)"/>
<path id="Vector_18" d="M40.4894 48.779C40.7492 48.6886 40.9318 48.6963 41.202 48.7365C41.1179 49.0244 41.0037 49.329 40.97 49.6268L40.4607 49.4486L39.8421 49.4362C39.8183 49.2209 39.8271 49.0033 39.829 48.7869C40.049 48.7928 40.2705 48.8067 40.4894 48.779Z" fill="var(--fill-0, black)"/>
<path id="Vector_19" d="M40.4894 48.779C40.4727 49.0029 40.4603 49.2239 40.4607 49.4486L39.8421 49.4362C39.8183 49.2208 39.8271 49.0033 39.829 48.7869C40.049 48.7928 40.2705 48.8067 40.4894 48.779Z" fill="var(--fill-0, #49484A)"/>
<path id="Vector_20" d="M29.6302 47.2413C29.924 47.2331 30.2201 47.217 30.5139 47.2266C30.6878 47.3436 30.9918 47.4994 31.0353 47.7133C31.0752 47.9094 31.0085 48.2812 30.8947 48.4467C30.8674 48.4864 30.8386 48.5198 30.8041 48.5531C30.5979 48.5782 30.4697 48.5114 30.3046 48.3808C30.0297 48.1631 29.7688 48.1263 29.4278 48.0746C29.4872 48.0127 29.5481 47.9483 29.5962 47.8768C29.7287 47.6804 29.6679 47.4588 29.6302 47.2413Z" fill="var(--fill-0, black)"/>
<path id="Vector_21" d="M32.1252 48.4387C32.5903 48.9051 33.2082 48.6649 33.2308 49.4928C33.1425 49.5822 33.0697 49.643 33.0452 49.7697C33.0414 49.7533 33.04 49.7361 33.0338 49.7204C32.9757 49.5738 32.9019 49.5638 32.7651 49.5299C32.5745 49.6001 32.5422 49.6133 32.4195 49.7732C32.2747 49.5678 31.9872 49.5002 31.8391 49.2849C31.7433 49.1458 31.6825 49.026 31.7367 48.8525C31.7981 48.6563 31.9598 48.5411 32.1252 48.4387Z" fill="var(--fill-0, #49484A)" fill-opacity="0.988235"/>
<path id="Vector_22" d="M32.1252 48.4387C32.236 48.2475 32.3183 48.076 32.5223 47.9715C32.7403 47.9529 32.8238 48.0182 32.9889 48.1606C33.3469 48.4693 33.7392 48.8173 34.0257 49.1918C33.9406 49.3388 33.8339 49.3895 33.6688 49.4308C33.5282 49.4661 33.375 49.4775 33.2308 49.4928C33.2082 48.6649 32.5903 48.9051 32.1252 48.4387Z" fill="var(--fill-0, black)"/>
<path id="Vector_23" d="M28.2639 47.878C28.5385 47.9762 28.7875 48.2458 29.0349 48.3058C29.0298 48.5008 29.0457 48.6432 29.0997 48.8322C28.8669 48.8475 28.4613 48.7729 28.2747 48.8928L28.1436 49.1032C28.061 48.8395 27.7856 48.6307 27.5908 48.4426C27.8443 48.2719 28.0673 48.1168 28.2639 47.878Z" fill="var(--fill-0, #49484A)" fill-opacity="0.988235"/>
<path id="Vector_24" d="M28.5574 47.4067L29.6302 47.2413C29.6679 47.4588 29.7287 47.6804 29.5962 47.8768C29.5481 47.9483 29.4872 48.0127 29.4278 48.0746L29.0349 48.3058C28.7875 48.2458 28.5385 47.9762 28.2639 47.878L28.5574 47.4067Z" fill="var(--fill-0, #202021)"/>
<path id="Vector_25" d="M30.3554 50.9619C30.6432 50.9779 30.9295 50.9916 31.2179 50.9915C31.1912 51.2461 31.1607 51.5003 31.1264 51.7541C31.1132 51.7284 31.1001 51.7027 31.0851 51.678C30.9185 51.4031 30.6344 51.364 30.345 51.2838L30.3554 50.9619Z" fill="var(--fill-0, #202021)" fill-opacity="0.972549"/>
<path id="Vector_26" d="M33.984 50.7873L34.1089 50.7706L34.1115 50.8737L34.0533 50.9093L33.984 50.7873Z" fill="var(--fill-0, black)" fill-opacity="0.0117647"/>
<path id="Vector_27" d="M6.99666 25.4253C7.63461 24.7616 7.54753 24.0882 7.92119 23.3206C8.80743 21.5 9.71115 19.6585 10.9354 18.0376C11.2615 17.6452 11.5735 16.9411 11.9219 16.5904C14.0014 14.497 15.9675 12.099 18.4554 10.4838C18.9646 10.1532 19.445 9.67709 19.9594 9.36754C21.5729 8.39633 23.2965 7.5594 25.0271 6.81987C25.8528 6.47435 26.8445 6.3337 27.6663 5.84878C27.8462 5.74264 28.7082 5.80943 28.9615 5.73026C30.0897 5.37758 31.041 5.05256 32.2414 5.05378C32.4104 5.05332 33.2453 4.76381 33.4733 4.69739C34.1889 4.48901 34.8792 4.46384 35.6223 4.449C36.0813 4.4501 36.4615 4.44536 36.7736 4.76793C36.1272 6.53711 36.6369 5.80719 37.3129 7.22007C37.0803 7.66565 36.8986 7.41874 36.4749 7.55771C35.8892 7.60554 35.3056 7.59107 34.7186 7.60125C33.5939 7.62091 32.3635 7.78728 31.2538 7.98011C24.7649 9.17449 18.898 12.6006 14.6692 17.6652C12.3432 20.4118 10.3657 23.5471 9.37674 27.0342C9.08861 28.0503 8.67112 29.0727 8.39711 30.0912C8.24051 30.6734 8.24416 31.3839 8.10434 31.9781C7.38292 34.7772 7.6266 37.7737 8.15216 40.5838C8.2693 41.2102 8.26635 41.8792 8.47569 42.4833C8.65617 42.993 8.88278 43.5213 8.99584 44.0492C9.49991 45.3834 9.97056 46.7651 10.5533 48.0655C12.2845 51.9283 14.7713 55.112 17.798 58.0391C18.5627 58.7786 19.5821 59.2199 20.3251 59.9694L20.0016 60.2023C19.5523 60.6991 19.2947 61.3554 18.7896 61.8021C16.2838 60.8642 11.7166 55.5731 10.1609 53.2309C8.07688 50.0934 6.16024 45.1782 5.56975 41.4314C5.27834 39.5823 5.43194 36.7794 5.44645 34.8711C5.46053 33.0201 5.47135 30.9866 6.10378 29.245C6.24137 28.8731 6.16926 27.9443 6.33064 27.5197C6.61516 26.771 6.84336 26.2219 6.99666 25.4253Z" fill="var(--fill-0, #BCCFC3)"/>
<path id="Vector_28" d="M34.5743 64.9232C36.062 64.9235 37.5839 65.0242 39.0647 64.8647C39.086 65.0292 39.1371 65.1505 39.0309 65.2935C38.8344 65.5579 38.3763 65.6251 38.0728 65.6511C37.1671 65.7288 34.8587 65.7477 34.1593 65.1906L34.118 65.0489C34.251 64.9271 34.3988 64.9444 34.5743 64.9232Z" fill="var(--fill-0, #D86837)"/>
<path id="Vector_29" d="M65.1708 33.4579C65.3633 33.3655 65.4996 33.2877 65.7203 33.3337C65.8993 33.4878 65.9513 33.6108 65.9668 33.8481C66.0023 34.3896 65.8674 34.9646 65.8254 35.5073C65.5886 35.7714 65.5802 35.9143 65.5717 36.2601C65.477 35.3699 65.459 34.2991 65.1708 33.4579Z" fill="var(--fill-0, #D86837)"/>
<path id="Vector_30" d="M37.3129 7.22007C37.8735 7.10441 39.231 7.1759 39.7569 7.42099C39.8765 7.57604 39.8843 7.60406 39.939 7.79304C39.3637 7.71186 37.1427 7.57478 36.4749 7.55771C36.8986 7.41874 37.0803 7.66565 37.3129 7.22007Z" fill="var(--fill-0, #CDA898)"/>
<path id="Vector_31" d="M20.3251 59.9694C21.1266 60.3614 21.9696 60.7779 22.7193 61.2618C22.615 61.3342 22.5012 61.4116 22.3841 61.461C22.2495 61.5177 22.0738 61.5246 21.9434 61.459C21.7252 61.3493 21.6532 61.0551 21.5838 60.8411C21.3316 60.8327 21.07 60.8326 20.8201 60.7978C20.4226 60.7425 20.2284 60.5086 20.0016 60.2023L20.3251 59.9694Z" fill="var(--fill-0, #F78A57)"/>
<path id="Vector_32" d="M61.8218 50.0791C62.2392 49.4403 62.4614 48.6555 62.9689 47.9152C63.1071 48.1043 63.1875 48.2293 63.2161 48.4653C63.1375 48.8639 62.7687 49.048 62.5951 49.3862C62.4635 49.6424 62.5131 49.9845 62.313 50.1987C62.1672 50.2393 62.1165 50.2701 61.9762 50.1892C61.922 50.1581 61.8714 50.117 61.8218 50.0791Z" fill="var(--fill-0, #CD5019)"/>
<path id="Vector_33" d="M65.5717 36.2601C65.5802 35.9143 65.5886 35.7714 65.8254 35.5073C65.7489 35.9523 65.6215 36.4164 65.6152 36.8689C65.6064 37.493 66.0607 38.5664 65.7594 39.1057C65.6472 39.1746 65.6198 39.2085 65.4837 39.1652C65.3616 39.1265 65.25 39.0129 65.1543 38.9302C65.5641 38.0339 65.5849 37.2329 65.5717 36.2601Z" fill="var(--fill-0, #CD5019)"/>
<path id="Vector_34" d="M64.5356 29.2937C64.7225 29.2205 64.8964 29.1292 65.0985 29.1961C65.2558 29.377 65.284 29.5104 65.2697 29.7512C65.229 30.4407 64.9879 31.0421 65.005 31.7547C64.9635 30.9406 64.8399 30.0528 64.5356 29.2937Z" fill="var(--fill-0, #D86837)"/>
<path id="Vector_35" d="M41.9248 64.5719C42.3315 64.4648 42.7259 64.3034 43.1201 64.1577C43.1614 64.3637 43.2305 64.5641 43.14 64.7632C42.9635 64.8583 42.8763 64.8882 42.674 64.829C42.4264 64.7566 42.1612 64.6746 41.9248 64.5719Z" fill="var(--fill-0, #F78A57)"/>
<path id="Vector_36" d="M28.5752 63.9731C28.378 64.0894 28.1561 64.2453 27.9162 64.2083C27.7554 64.1835 27.7437 64.159 27.6504 64.0373C27.6344 63.8505 27.6552 63.7355 27.7267 63.5625C28.0284 63.6775 28.2986 63.8066 28.5752 63.9731Z" fill="var(--fill-0, #D86837)"/>
<path id="Vector_37" d="M42.7598 8.18257C43.0393 8.08798 43.5399 7.84142 43.7639 7.89332C43.888 8.06888 43.8734 8.05982 43.8256 8.34788C43.8173 8.39507 43.8084 8.44212 43.7987 8.48903C43.4537 8.38236 43.1074 8.28018 42.7598 8.18257Z" fill="var(--fill-0, #F78A57)"/>
<path id="Vector_38" d="M25.2687 62.6011C25.1611 62.6929 25.0176 62.7906 24.8869 62.8443C24.7176 62.9139 24.6443 62.882 24.4893 62.8123C24.3623 62.6217 24.3751 62.4613 24.3809 62.2411C24.6768 62.3599 24.9769 62.4728 25.2687 62.6011Z" fill="var(--fill-0, #F78A57)"/>
<path id="Vector_39" d="M53.581 59.4371C53.9159 59.1671 54.3318 58.9507 54.6998 58.7246C54.6288 58.972 54.5451 59.2031 54.3073 59.3387C54.1036 59.4548 53.8081 59.4522 53.581 59.4371Z" fill="var(--fill-0, #CD5019)"/>
</g>
</svg>
